<svg width="359" height="95" viewBox="0 0 359 95" fill="none" xmlns="http://www.w3.org/2000/svg">
<g clip-path="url(#clip0)">
<rect width="359" height="95" rx="10" fill="white" stroke="#EAE9F2"/>
<path fill-rule="evenodd" clip-rule="evenodd" d="M47.5 75C62.6878 75 75 62.6878 75 47.5C75 32.3122 62.6878 20 47.5 20C32.3122 20 20 32.3122 20 47.5C20 62.6878 32.3122 75 47.5 75Z" fill="#5454D4" fill-opacity="0.1"/>
<path fill-rule="evenodd" clip-rule="evenodd" d="M42.5 37H53.5C54.88 37.0016 55.9983 38.0713 56 39.3913V56.6087C55.9983 57.9287 54.88 58.9984 53.5 59H42.5C41.12 58.9984 40.0017 57.9287 40 56.6087V39.3913C40.0017 38.0713 41.12 37.0016 42.5 37ZM54.5 55.6522C54.7761 55.6522 55 55.438 55 55.1739V39.8696C55 39.6054 54.7761 39.3913 54.5 39.3913H41.5C41.2239 39.3913 41 39.6054 41 39.8696V55.1739C41 55.438 41.2239 55.6522 41.5 55.6522H54.5Z" fill="#5454D4"/>
<path d="M113.312 41V26.111H109.364L104.996 36.863L100.523 26.111H96.701V41H99.473V30.647L103.757 41H106.172L110.456 30.563V41H113.312ZM120.43 38.774C119.065 38.774 117.805 37.766 117.805 35.834C117.805 33.881 119.065 32.894 120.43 32.894C121.795 32.894 123.055 33.881 123.055 35.834C123.055 37.787 121.795 38.774 120.43 38.774ZM120.43 30.353C117.343 30.353 115.012 32.642 115.012 35.834C115.012 39.005 117.343 41.315 120.43 41.315C123.517 41.315 125.848 39.005 125.848 35.834C125.848 32.642 123.517 30.353 120.43 30.353ZM130.105 41V39.74C130.651 40.622 131.743 41.252 133.171 41.252C136.111 41.252 138.043 38.921 138.043 35.792C138.043 32.726 136.3 30.395 133.276 30.395C131.743 30.395 130.609 31.067 130.147 31.802V25.796H127.396V41H130.105ZM135.25 35.813C135.25 37.703 134.116 38.753 132.688 38.753C131.281 38.753 130.105 37.682 130.105 35.813C130.105 33.923 131.281 32.894 132.688 32.894C134.116 32.894 135.25 33.923 135.25 35.813ZM142.391 41V30.668H139.598V41H142.391ZM139.262 27.287C139.262 28.211 140.039 28.988 140.984 28.988C141.95 28.988 142.706 28.211 142.706 27.287C142.706 26.321 141.95 25.544 140.984 25.544C140.039 25.544 139.262 26.321 139.262 27.287ZM147.517 41V25.796H144.724V41H147.517ZM151.888 34.658C151.951 33.713 152.749 32.621 154.198 32.621C155.794 32.621 156.466 33.629 156.508 34.658H151.888ZM156.781 37.346C156.445 38.27 155.731 38.921 154.429 38.921C153.043 38.921 151.888 37.934 151.825 36.569H159.217C159.217 36.527 159.259 36.107 159.259 35.708C159.259 32.39 157.348 30.353 154.156 30.353C151.51 30.353 149.074 32.495 149.074 35.792C149.074 39.278 151.573 41.315 154.408 41.315C156.949 41.315 158.587 39.824 159.112 38.039L156.781 37.346ZM168.463 41V35.204H174.238V32.537H168.442V28.862H174.952V26.111H165.544V41H168.463ZM179.221 41V30.668H176.428V41H179.221ZM176.092 27.287C176.092 28.211 176.869 28.988 177.814 28.988C178.78 28.988 179.536 28.211 179.536 27.287C179.536 26.321 178.78 25.544 177.814 25.544C176.869 25.544 176.092 26.321 176.092 27.287ZM187.855 30.626C187.645 30.605 187.435 30.584 187.204 30.584C186.322 30.584 184.894 30.836 184.264 32.201V30.668H181.555V41H184.348V36.275C184.348 34.049 185.587 33.356 187.015 33.356C187.267 33.356 187.54 33.377 187.855 33.44V30.626ZM188.343 38.123C188.469 39.299 189.54 41.315 192.648 41.315C195.357 41.315 196.659 39.593 196.659 37.913C196.659 36.401 195.63 35.162 193.593 34.742L192.123 34.427C191.556 34.322 191.178 34.007 191.178 33.503C191.178 32.915 191.766 32.474 192.501 32.474C193.677 32.474 194.118 33.251 194.202 33.86L196.533 33.335C196.407 32.222 195.42 30.353 192.48 30.353C190.254 30.353 188.616 31.886 188.616 33.734C188.616 35.183 189.519 36.38 191.514 36.821L192.879 37.136C193.677 37.304 193.992 37.682 193.992 38.144C193.992 38.69 193.551 39.173 192.627 39.173C191.409 39.173 190.8 38.417 190.737 37.598L188.343 38.123ZM201.692 27.581H199.172V29.03C199.172 29.954 198.668 30.668 197.576 30.668H197.051V33.146H198.92V37.955C198.92 39.95 200.18 41.147 202.196 41.147C203.015 41.147 203.519 41 203.771 40.895V38.585C203.624 38.627 203.246 38.669 202.91 38.669C202.112 38.669 201.692 38.375 201.692 37.472V33.146H203.771V30.668H201.692V27.581ZM213.065 38.312V28.799H215.396C217.832 28.799 219.848 30.332 219.848 33.566C219.848 36.8 217.811 38.312 215.375 38.312H213.065ZM215.48 41C219.722 41 222.851 38.27 222.851 33.566C222.851 28.862 219.743 26.111 215.501 26.111H210.167V41H215.48ZM226.595 34.658C226.658 33.713 227.456 32.621 228.905 32.621C230.501 32.621 231.173 33.629 231.215 34.658H226.595ZM231.488 37.346C231.152 38.27 230.438 38.921 229.136 38.921C227.75 38.921 226.595 37.934 226.532 36.569H233.924C233.924 36.527 233.966 36.107 233.966 35.708C233.966 32.39 232.055 30.353 228.863 30.353C226.217 30.353 223.781 32.495 223.781 35.792C223.781 39.278 226.28 41.315 229.115 41.315C231.656 41.315 233.294 39.824 233.819 38.039L231.488 37.346ZM234.627 38.123C234.753 39.299 235.824 41.315 238.932 41.315C241.641 41.315 242.943 39.593 242.943 37.913C242.943 36.401 241.914 35.162 239.877 34.742L238.407 34.427C237.84 34.322 237.462 34.007 237.462 33.503C237.462 32.915 238.05 32.474 238.785 32.474C239.961 32.474 240.402 33.251 240.486 33.86L242.817 33.335C242.691 32.222 241.704 30.353 238.764 30.353C236.538 30.353 234.9 31.886 234.9 33.734C234.9 35.183 235.803 36.38 237.798 36.821L239.163 37.136C239.961 37.304 240.276 37.682 240.276 38.144C240.276 38.69 239.835 39.173 238.911 39.173C237.693 39.173 237.084 38.417 237.021 37.598L234.627 38.123ZM247.325 41V30.668H244.532V41H247.325ZM244.196 27.287C244.196 28.211 244.973 28.988 245.918 28.988C246.884 28.988 247.64 28.211 247.64 27.287C247.64 26.321 246.884 25.544 245.918 25.544C244.973 25.544 244.196 26.321 244.196 27.287ZM248.924 41.567C249.218 43.541 251.108 45.305 253.943 45.305C257.828 45.305 259.361 42.722 259.361 39.887V30.668H256.673V31.886C256.316 31.193 255.371 30.479 253.733 30.479C250.898 30.479 248.924 32.789 248.924 35.519C248.924 38.417 250.982 40.538 253.733 40.538C255.224 40.538 256.19 39.887 256.61 39.215V39.971C256.61 41.966 255.623 42.848 253.859 42.848C252.536 42.848 251.633 42.029 251.444 40.895L248.924 41.567ZM254.216 38.144C252.767 38.144 251.738 37.136 251.738 35.519C251.738 33.923 252.83 32.915 254.216 32.915C255.56 32.915 256.652 33.923 256.652 35.519C256.652 37.115 255.644 38.144 254.216 38.144ZM264.326 35.057C264.326 33.86 265.04 32.915 266.258 32.915C267.602 32.915 268.169 33.818 268.169 34.973V41H270.962V34.49C270.962 32.222 269.786 30.395 267.224 30.395C266.111 30.395 264.872 30.878 264.242 31.949V30.668H261.533V41H264.326V35.057Z" fill="#19191B"/>
<path d="M98.759 65.606C99.375 66.236 100.124 66.551 101.006 66.551C101.888 66.551 102.63 66.236 103.232 65.606C103.848 64.962 104.156 64.073 104.156 62.939C104.156 61.819 103.848 60.944 103.232 60.314C102.63 59.67 101.888 59.348 101.006 59.348C100.124 59.348 99.375 59.67 98.759 60.314C98.157 60.944 97.856 61.819 97.856 62.939C97.856 64.073 98.157 64.962 98.759 65.606ZM97.289 59.117C98.269 58.095 99.508 57.584 101.006 57.584C102.504 57.584 103.736 58.095 104.702 59.117C105.682 60.125 106.172 61.399 106.172 62.939C106.172 64.493 105.689 65.781 104.723 66.803C103.757 67.811 102.518 68.315 101.006 68.315C99.494 68.315 98.255 67.811 97.289 66.803C96.323 65.781 95.84 64.493 95.84 62.939C95.84 61.399 96.323 60.125 97.289 59.117ZM110.015 62.162V68H108.041V57.899H109.973V59.348C110.645 58.186 111.681 57.605 113.081 57.605C114.243 57.605 115.132 57.976 115.748 58.718C116.378 59.46 116.693 60.419 116.693 61.595V68H114.719V61.931C114.719 60.237 113.935 59.39 112.367 59.39C111.625 59.39 111.044 59.656 110.624 60.188C110.218 60.706 110.015 61.364 110.015 62.162ZM133.031 68H123.98V53.111H133.031V55.022H126.038V59.6H132.38V61.532H126.038V66.089H133.031V68ZM143.66 57.899L139.628 68H137.633L133.538 57.899H135.764L138.641 65.69L141.539 57.899H143.66ZM145.866 61.91H151.389C151.361 61.154 151.109 60.538 150.633 60.062C150.157 59.572 149.485 59.327 148.617 59.327C147.833 59.327 147.189 59.586 146.685 60.104C146.181 60.608 145.908 61.21 145.866 61.91ZM151.683 64.535L153.384 65.123C153.09 66.061 152.544 66.831 151.746 67.433C150.948 68.021 149.982 68.315 148.848 68.315C147.434 68.315 146.23 67.832 145.236 66.866C144.256 65.886 143.766 64.57 143.766 62.918C143.766 61.378 144.242 60.104 145.194 59.096C146.146 58.088 147.28 57.584 148.596 57.584C150.122 57.584 151.312 58.067 152.166 59.033C153.02 59.985 153.447 61.266 153.447 62.876C153.447 63.128 153.433 63.338 153.405 63.506H145.803C145.817 64.402 146.111 65.137 146.685 65.711C147.273 66.285 147.994 66.572 148.848 66.572C150.29 66.572 151.235 65.893 151.683 64.535ZM160.917 57.794V59.894C160.623 59.852 160.336 59.831 160.056 59.831C158.208 59.831 157.284 60.867 157.284 62.939V68H155.31V57.899H157.242V59.663C157.858 58.375 158.866 57.731 160.266 57.731C160.49 57.731 160.707 57.752 160.917 57.794ZM165.192 72.221H163.029L165.549 66.887L161.202 57.899H163.47L166.62 64.871L169.644 57.899H171.765L165.192 72.221ZM179.869 66.173H182.914C184.37 66.173 185.574 65.69 186.526 64.724C187.492 63.758 187.975 62.379 187.975 60.587C187.975 58.781 187.499 57.388 186.547 56.408C185.609 55.428 184.412 54.938 182.956 54.938H179.869V66.173ZM182.977 68H177.811V53.111H183.019C185.021 53.111 186.701 53.776 188.059 55.106C189.417 56.422 190.096 58.249 190.096 60.587C190.096 62.911 189.41 64.731 188.038 66.047C186.666 67.349 184.979 68 182.977 68ZM193.34 61.91H198.863C198.835 61.154 198.583 60.538 198.107 60.062C197.631 59.572 196.959 59.327 196.091 59.327C195.307 59.327 194.663 59.586 194.159 60.104C193.655 60.608 193.382 61.21 193.34 61.91ZM199.157 64.535L200.858 65.123C200.564 66.061 200.018 66.831 199.22 67.433C198.422 68.021 197.456 68.315 196.322 68.315C194.908 68.315 193.704 67.832 192.71 66.866C191.73 65.886 191.24 64.57 191.24 62.918C191.24 61.378 191.716 60.104 192.668 59.096C193.62 58.088 194.754 57.584 196.07 57.584C197.596 57.584 198.786 58.067 199.64 59.033C200.494 59.985 200.921 61.266 200.921 62.876C200.921 63.128 200.907 63.338 200.879 63.506H193.277C193.291 64.402 193.585 65.137 194.159 65.711C194.747 66.285 195.468 66.572 196.322 66.572C197.764 66.572 198.709 65.893 199.157 64.535ZM211.231 57.899L207.199 68H205.204L201.109 57.899H203.335L206.212 65.69L209.11 57.899H211.231ZM214.417 68H212.464V57.899H214.417V68ZM212.422 55.085C212.156 54.805 212.023 54.469 212.023 54.077C212.023 53.685 212.156 53.349 212.422 53.069C212.702 52.789 213.038 52.649 213.43 52.649C213.822 52.649 214.158 52.789 214.438 53.069C214.718 53.335 214.858 53.671 214.858 54.077C214.858 54.469 214.718 54.805 214.438 55.085C214.158 55.351 213.822 55.484 213.43 55.484C213.038 55.484 212.702 55.351 212.422 55.085ZM221.361 59.411C220.507 59.411 219.779 59.719 219.177 60.335C218.589 60.951 218.295 61.819 218.295 62.939C218.295 64.045 218.589 64.913 219.177 65.543C219.779 66.173 220.514 66.488 221.382 66.488C222.222 66.488 222.859 66.278 223.293 65.858C223.741 65.438 224.042 64.955 224.196 64.409L225.939 65.165C225.659 66.005 225.127 66.74 224.343 67.37C223.573 68 222.586 68.315 221.382 68.315C219.912 68.315 218.694 67.804 217.728 66.782C216.762 65.76 216.279 64.479 216.279 62.939C216.279 61.371 216.762 60.09 217.728 59.096C218.694 58.088 219.905 57.584 221.361 57.584C222.593 57.584 223.587 57.899 224.343 58.529C225.113 59.159 225.617 59.915 225.855 60.797L224.07 61.553C223.916 60.965 223.622 60.461 223.188 60.041C222.754 59.621 222.145 59.411 221.361 59.411ZM228.776 61.91H234.299C234.271 61.154 234.019 60.538 233.543 60.062C233.067 59.572 232.395 59.327 231.527 59.327C230.743 59.327 230.099 59.586 229.595 60.104C229.091 60.608 228.818 61.21 228.776 61.91ZM234.593 64.535L236.294 65.123C236 66.061 235.454 66.831 234.656 67.433C233.858 68.021 232.892 68.315 231.758 68.315C230.344 68.315 229.14 67.832 228.146 66.866C227.166 65.886 226.676 64.57 226.676 62.918C226.676 61.378 227.152 60.104 228.104 59.096C229.056 58.088 230.19 57.584 231.506 57.584C233.032 57.584 234.222 58.067 235.076 59.033C235.93 59.985 236.357 61.266 236.357 62.876C236.357 63.128 236.343 63.338 236.315 63.506H228.713C228.727 64.402 229.021 65.137 229.595 65.711C230.183 66.285 230.904 66.572 231.758 66.572C233.2 66.572 234.145 65.893 234.593 64.535ZM237.276 65.375L239.061 64.745C239.131 65.291 239.369 65.746 239.775 66.11C240.181 66.46 240.727 66.635 241.413 66.635C241.945 66.635 242.365 66.509 242.673 66.257C242.981 65.991 243.135 65.669 243.135 65.291C243.135 64.619 242.701 64.185 241.833 63.989L240.111 63.611C239.327 63.443 238.711 63.107 238.263 62.603C237.815 62.099 237.591 61.49 237.591 60.776C237.591 59.908 237.941 59.159 238.641 58.529C239.355 57.899 240.202 57.584 241.182 57.584C241.826 57.584 242.4 57.682 242.904 57.878C243.408 58.06 243.8 58.305 244.08 58.613C244.36 58.921 244.57 59.208 244.71 59.474C244.85 59.74 244.955 60.013 245.025 60.293L243.282 60.944C243.254 60.776 243.205 60.615 243.135 60.461C243.065 60.293 242.953 60.111 242.799 59.915C242.659 59.719 242.449 59.565 242.169 59.453C241.889 59.327 241.56 59.264 241.182 59.264C240.692 59.264 240.286 59.397 239.964 59.663C239.656 59.929 239.502 60.244 239.502 60.608C239.502 61.252 239.887 61.658 240.657 61.826L242.295 62.183C243.191 62.379 243.877 62.743 244.353 63.275C244.843 63.793 245.088 64.43 245.088 65.186C245.088 65.984 244.759 66.705 244.101 67.349C243.457 67.993 242.554 68.315 241.392 68.315C240.146 68.315 239.173 68.007 238.473 67.391C237.773 66.761 237.374 66.089 237.276 65.375Z" fill="#696871"/>
</g>
<defs>
<clipPath id="clip0">
<rect width="359" height="95" fill="white"/>
</clipPath>
</defs>
</svg>
