<svg width="359" height="95" viewBox="0 0 359 95" fill="none" xmlns="http://www.w3.org/2000/svg">
<g clip-path="url(#clip0)">
<rect width="359" height="95" rx="10" fill="white" stroke="#EAE9F2"/>
<path fill-rule="evenodd" clip-rule="evenodd" d="M47.5 75C62.6878 75 75 62.6878 75 47.5C75 32.3122 62.6878 20 47.5 20C32.3122 20 20 32.3122 20 47.5C20 62.6878 32.3122 75 47.5 75Z" fill="#F04037" fill-opacity="0.097195"/>
<path d="M58.6432 44.1384L50.6629 42V52.1634C50.6629 52.9596 50.0116 53.605 49.2082 53.605H43.5075L43.0173 55.383C42.9832 55.5059 42.9999 55.6372 43.0636 55.748C43.1272 55.8587 43.2327 55.9399 43.3567 55.9736L54.5917 58.9837C54.633 58.9945 54.6756 59 54.7183 59C54.9375 59.0001 55.1295 58.8546 55.1867 58.6449L58.9831 44.728C59.0168 44.6049 58.9997 44.4736 58.9355 44.363C58.8714 44.2524 58.7655 44.1716 58.6413 44.1384H58.6432Z" fill="#F04037"/>
<rect x="37" y="37" width="12" height="15" rx="1" fill="#F04037"/>
<path d="M95.609 37.178C95.777 39.32 97.835 41.336 100.796 41.336C104.072 41.336 106.025 39.131 106.025 36.59C106.025 33.671 104.093 32.033 101.363 32.033C100.46 32.033 99.494 32.327 98.906 32.873L99.578 29.87H105.29V27.371H97.604L95.987 34.364C96.281 34.448 98.36 35.162 98.633 35.267C99.074 34.763 99.809 34.343 100.733 34.343C101.993 34.343 103.148 35.078 103.148 36.632C103.148 37.997 102.098 38.858 100.796 38.858C99.347 38.858 98.381 37.829 98.318 36.569L95.609 37.178ZM109.669 34.196C109.669 32.768 109.879 31.55 110.404 30.731C110.824 30.059 111.475 29.618 112.462 29.618C113.47 29.618 114.079 30.059 114.499 30.731C115.045 31.55 115.255 32.768 115.255 34.196C115.255 35.624 115.045 36.842 114.499 37.661C114.079 38.333 113.47 38.774 112.462 38.774C111.475 38.774 110.824 38.333 110.404 37.661C109.879 36.842 109.669 35.624 109.669 34.196ZM106.771 34.196C106.771 35.939 107.044 37.64 107.968 39.047C108.871 40.391 110.341 41.336 112.462 41.336C114.583 41.336 116.053 40.391 116.935 39.047C117.859 37.64 118.153 35.939 118.153 34.196C118.153 32.453 117.859 30.752 116.935 29.345C116.053 28.001 114.583 27.056 112.462 27.056C110.341 27.056 108.871 28.001 107.968 29.345C107.044 30.752 106.771 32.453 106.771 34.196ZM119.51 33.671V35.96H123.479V40.076H125.831V35.96H129.821V33.671H125.831V29.576H123.479V33.671H119.51ZM141.989 41.336C145.181 41.336 147.722 39.383 147.722 35.729V26.111H144.824V35.519C144.824 37.472 143.753 38.501 141.989 38.501C140.267 38.501 139.175 37.472 139.175 35.519V26.111H136.277V35.729C136.277 39.383 138.818 41.336 141.989 41.336ZM152.808 35.057C152.808 33.86 153.522 32.915 154.74 32.915C156.084 32.915 156.651 33.818 156.651 34.973V41H159.444V34.49C159.444 32.222 158.268 30.395 155.706 30.395C154.593 30.395 153.354 30.878 152.724 31.949V30.668H150.015V41H152.808V35.057ZM164.415 41V30.668H161.622V41H164.415ZM161.286 27.287C161.286 28.211 162.063 28.988 163.008 28.988C163.974 28.988 164.73 28.211 164.73 27.287C164.73 26.321 163.974 25.544 163.008 25.544C162.063 25.544 161.286 26.321 161.286 27.287ZM176.619 44.99V30.668H173.952V31.865C173.658 31.277 172.734 30.416 170.928 30.416C167.925 30.416 165.972 32.789 165.972 35.813C165.972 38.921 168.072 41.252 171.012 41.252C172.377 41.252 173.406 40.748 173.889 39.971V44.99H176.619ZM168.786 35.813C168.786 33.965 169.92 32.915 171.348 32.915C172.776 32.915 173.91 33.965 173.91 35.813C173.91 37.661 172.776 38.753 171.348 38.753C169.92 38.753 168.786 37.661 168.786 35.813ZM185.631 41H188.298C188.256 40.643 188.193 39.929 188.193 39.131V30.668H185.4V36.674C185.4 37.871 184.686 38.711 183.447 38.711C182.145 38.711 181.557 37.787 181.557 36.632V30.668H178.764V37.199C178.764 39.446 180.192 41.273 182.691 41.273C183.783 41.273 184.98 40.853 185.547 39.887C185.547 40.307 185.589 40.79 185.631 41ZM192.513 34.658C192.576 33.713 193.374 32.621 194.823 32.621C196.419 32.621 197.091 33.629 197.133 34.658H192.513ZM197.406 37.346C197.07 38.27 196.356 38.921 195.054 38.921C193.668 38.921 192.513 37.934 192.45 36.569H199.842C199.842 36.527 199.884 36.107 199.884 35.708C199.884 32.39 197.973 30.353 194.781 30.353C192.135 30.353 189.699 32.495 189.699 35.792C189.699 39.278 192.198 41.315 195.033 41.315C197.574 41.315 199.212 39.824 199.737 38.039L197.406 37.346ZM209.067 38.312V28.799H211.398C213.834 28.799 215.85 30.332 215.85 33.566C215.85 36.8 213.813 38.312 211.377 38.312H209.067ZM211.482 41C215.724 41 218.853 38.27 218.853 33.566C218.853 28.862 215.745 26.111 211.503 26.111H206.169V41H211.482ZM222.597 34.658C222.66 33.713 223.458 32.621 224.907 32.621C226.503 32.621 227.175 33.629 227.217 34.658H222.597ZM227.49 37.346C227.154 38.27 226.44 38.921 225.138 38.921C223.752 38.921 222.597 37.934 222.534 36.569H229.926C229.926 36.527 229.968 36.107 229.968 35.708C229.968 32.39 228.057 30.353 224.865 30.353C222.219 30.353 219.783 32.495 219.783 35.792C219.783 39.278 222.282 41.315 225.117 41.315C227.658 41.315 229.296 39.824 229.821 38.039L227.49 37.346ZM230.629 38.123C230.755 39.299 231.826 41.315 234.934 41.315C237.643 41.315 238.945 39.593 238.945 37.913C238.945 36.401 237.916 35.162 235.879 34.742L234.409 34.427C233.842 34.322 233.464 34.007 233.464 33.503C233.464 32.915 234.052 32.474 234.787 32.474C235.963 32.474 236.404 33.251 236.488 33.86L238.819 33.335C238.693 32.222 237.706 30.353 234.766 30.353C232.54 30.353 230.902 31.886 230.902 33.734C230.902 35.183 231.805 36.38 233.8 36.821L235.165 37.136C235.963 37.304 236.278 37.682 236.278 38.144C236.278 38.69 235.837 39.173 234.913 39.173C233.695 39.173 233.086 38.417 233.023 37.598L230.629 38.123ZM243.327 41V30.668H240.534V41H243.327ZM240.198 27.287C240.198 28.211 240.975 28.988 241.92 28.988C242.886 28.988 243.642 28.211 243.642 27.287C243.642 26.321 242.886 25.544 241.92 25.544C240.975 25.544 240.198 26.321 240.198 27.287ZM244.926 41.567C245.22 43.541 247.11 45.305 249.945 45.305C253.83 45.305 255.363 42.722 255.363 39.887V30.668H252.675V31.886C252.318 31.193 251.373 30.479 249.735 30.479C246.9 30.479 244.926 32.789 244.926 35.519C244.926 38.417 246.984 40.538 249.735 40.538C251.226 40.538 252.192 39.887 252.612 39.215V39.971C252.612 41.966 251.625 42.848 249.861 42.848C248.538 42.848 247.635 42.029 247.446 40.895L244.926 41.567ZM250.218 38.144C248.769 38.144 247.74 37.136 247.74 35.519C247.74 33.923 248.832 32.915 250.218 32.915C251.562 32.915 252.654 33.923 252.654 35.519C252.654 37.115 251.646 38.144 250.218 38.144ZM260.327 35.057C260.327 33.86 261.041 32.915 262.259 32.915C263.603 32.915 264.17 33.818 264.17 34.973V41H266.963V34.49C266.963 32.222 265.787 30.395 263.225 30.395C262.112 30.395 260.873 30.878 260.243 31.949V30.668H257.534V41H260.327V35.057ZM273.884 26.111V41H279.638C282.431 41 284.237 39.257 284.237 36.842C284.237 34.994 283.061 33.671 281.612 33.314C282.851 32.894 283.775 31.655 283.775 30.122C283.775 27.812 282.137 26.111 279.239 26.111H273.884ZM276.74 32.264V28.547H278.777C280.184 28.547 280.919 29.261 280.919 30.395C280.919 31.529 280.121 32.264 278.798 32.264H276.74ZM276.74 38.585V34.658H279.134C280.583 34.658 281.339 35.477 281.339 36.653C281.339 37.85 280.499 38.585 279.092 38.585H276.74ZM288.627 41V25.796H285.834V41H288.627ZM295.602 38.774C294.237 38.774 292.977 37.766 292.977 35.834C292.977 33.881 294.237 32.894 295.602 32.894C296.967 32.894 298.227 33.881 298.227 35.834C298.227 37.787 296.967 38.774 295.602 38.774ZM295.602 30.353C292.515 30.353 290.184 32.642 290.184 35.834C290.184 39.005 292.515 41.315 295.602 41.315C298.689 41.315 301.02 39.005 301.02 35.834C301.02 32.642 298.689 30.353 295.602 30.353ZM307.209 32.936C308.595 32.936 309.246 33.818 309.498 34.679L311.997 33.839C311.556 32.096 309.96 30.353 307.146 30.353C304.143 30.353 301.791 32.642 301.791 35.834C301.791 39.005 304.185 41.315 307.23 41.315C309.981 41.315 311.598 39.551 312.06 37.829L309.603 37.01C309.372 37.808 308.658 38.753 307.23 38.753C305.802 38.753 304.584 37.703 304.584 35.834C304.584 33.965 305.781 32.936 307.209 32.936ZM323.475 30.668H319.821L316.251 34.511V25.796H313.458V41H316.251V38.27L317.406 37.052L320.136 41H323.559L319.338 35.015L323.475 30.668ZM323.65 38.123C323.776 39.299 324.847 41.315 327.955 41.315C330.664 41.315 331.966 39.593 331.966 37.913C331.966 36.401 330.937 35.162 328.9 34.742L327.43 34.427C326.863 34.322 326.485 34.007 326.485 33.503C326.485 32.915 327.073 32.474 327.808 32.474C328.984 32.474 329.425 33.251 329.509 33.86L331.84 33.335C331.714 32.222 330.727 30.353 327.787 30.353C325.561 30.353 323.923 31.886 323.923 33.734C323.923 35.183 324.826 36.38 326.821 36.821L328.186 37.136C328.984 37.304 329.299 37.682 329.299 38.144C329.299 38.69 328.858 39.173 327.934 39.173C326.716 39.173 326.107 38.417 326.044 37.598L323.65 38.123Z" fill="#19191B"/>
<path d="M102.371 57.899H104.408L107.033 65.501L109.259 57.899H111.338L108.062 68H106.025L103.337 60.314L100.712 68H98.633L95.315 57.899H97.478L99.746 65.501L102.371 57.899ZM114.629 68H112.676V57.899H114.629V68ZM112.634 55.085C112.368 54.805 112.235 54.469 112.235 54.077C112.235 53.685 112.368 53.349 112.634 53.069C112.914 52.789 113.25 52.649 113.642 52.649C114.034 52.649 114.37 52.789 114.65 53.069C114.93 53.335 115.07 53.671 115.07 54.077C115.07 54.469 114.93 54.805 114.65 55.085C114.37 55.351 114.034 55.484 113.642 55.484C113.25 55.484 112.914 55.351 112.634 55.085ZM119.977 54.707V57.899H122.161V59.684H119.977V64.934C119.977 65.41 120.082 65.76 120.292 65.984C120.516 66.208 120.88 66.32 121.384 66.32C121.678 66.32 121.937 66.292 122.161 66.236V67.916C121.825 68.042 121.377 68.105 120.817 68.105C119.949 68.105 119.263 67.853 118.759 67.349C118.255 66.845 118.003 66.138 118.003 65.228V59.684H116.071V57.899H116.617C117.135 57.899 117.52 57.759 117.772 57.479C118.038 57.185 118.171 56.807 118.171 56.345V54.707H119.977ZM126.113 62.057V68H124.139V52.796H126.113V59.075C126.785 58.095 127.807 57.605 129.179 57.605C130.341 57.605 131.23 57.976 131.846 58.718C132.476 59.46 132.791 60.419 132.791 61.595V68H130.817V61.931C130.817 60.237 130.033 59.39 128.465 59.39C127.737 59.39 127.17 59.642 126.764 60.146C126.358 60.636 126.141 61.273 126.113 62.057ZM146.525 68.315C144.495 68.315 142.752 67.615 141.296 66.215C139.854 64.815 139.133 62.925 139.133 60.545C139.133 58.949 139.497 57.549 140.225 56.345C140.953 55.141 141.87 54.252 142.976 53.678C144.082 53.09 145.265 52.796 146.525 52.796C148.205 52.796 149.619 53.223 150.767 54.077C151.929 54.917 152.699 56.065 153.077 57.521L151.166 58.193C150.886 57.073 150.347 56.212 149.549 55.61C148.751 54.994 147.743 54.686 146.525 54.686C145.069 54.686 143.823 55.204 142.787 56.24C141.751 57.262 141.233 58.697 141.233 60.545C141.233 62.393 141.751 63.835 142.787 64.871C143.823 65.907 145.069 66.425 146.525 66.425C147.743 66.425 148.758 66.103 149.57 65.459C150.382 64.801 150.949 63.933 151.271 62.855L153.098 63.527C152.692 64.969 151.908 66.131 150.746 67.013C149.598 67.881 148.191 68.315 146.525 68.315ZM153.921 65.291C153.921 64.423 154.201 63.73 154.761 63.212C155.321 62.68 156.063 62.351 156.987 62.225L159.717 61.826C160.235 61.756 160.494 61.504 160.494 61.07C160.494 60.538 160.312 60.104 159.948 59.768C159.584 59.432 159.038 59.264 158.31 59.264C157.638 59.264 157.106 59.453 156.714 59.831C156.322 60.195 156.091 60.685 156.021 61.301L154.131 60.86C154.229 59.894 154.67 59.11 155.454 58.508C156.238 57.892 157.176 57.584 158.268 57.584C159.696 57.584 160.753 57.934 161.439 58.634C162.125 59.32 162.468 60.202 162.468 61.28V66.341C162.468 66.943 162.51 67.496 162.594 68H160.662C160.592 67.58 160.557 67.125 160.557 66.635C160.277 67.083 159.864 67.475 159.318 67.811C158.786 68.147 158.114 68.315 157.302 68.315C156.308 68.315 155.496 68.021 154.866 67.433C154.236 66.831 153.921 66.117 153.921 65.291ZM157.575 66.656C158.457 66.656 159.164 66.418 159.696 65.942C160.228 65.466 160.494 64.71 160.494 63.674V63.212L157.407 63.674C156.959 63.744 156.602 63.905 156.336 64.157C156.07 64.409 155.937 64.752 155.937 65.186C155.937 65.578 156.084 65.921 156.378 66.215C156.686 66.509 157.085 66.656 157.575 66.656ZM170.494 57.794V59.894C170.2 59.852 169.913 59.831 169.633 59.831C167.785 59.831 166.861 60.867 166.861 62.939V68H164.887V57.899H166.819V59.663C167.435 58.375 168.443 57.731 169.843 57.731C170.067 57.731 170.284 57.752 170.494 57.794ZM173.12 61.91H178.643C178.615 61.154 178.363 60.538 177.887 60.062C177.411 59.572 176.739 59.327 175.871 59.327C175.087 59.327 174.443 59.586 173.939 60.104C173.435 60.608 173.162 61.21 173.12 61.91ZM178.937 64.535L180.638 65.123C180.344 66.061 179.798 66.831 179 67.433C178.202 68.021 177.236 68.315 176.102 68.315C174.688 68.315 173.484 67.832 172.49 66.866C171.51 65.886 171.02 64.57 171.02 62.918C171.02 61.378 171.496 60.104 172.448 59.096C173.4 58.088 174.534 57.584 175.85 57.584C177.376 57.584 178.566 58.067 179.42 59.033C180.274 59.985 180.701 61.266 180.701 62.876C180.701 63.128 180.687 63.338 180.659 63.506H173.057C173.071 64.402 173.365 65.137 173.939 65.711C174.527 66.285 175.248 66.572 176.102 66.572C177.544 66.572 178.489 65.893 178.937 64.535ZM187.646 59.684H185.21V68H183.173V59.684H181.304V57.899H183.173V56.198C183.173 55.12 183.488 54.273 184.118 53.657C184.748 53.041 185.539 52.733 186.491 52.733C187.093 52.733 187.485 52.803 187.667 52.943V54.707C187.457 54.623 187.17 54.581 186.806 54.581C186.372 54.581 185.994 54.714 185.672 54.98C185.364 55.232 185.21 55.673 185.21 56.303V57.899H187.646V59.684ZM195.66 66.782C195.394 67.286 194.988 67.671 194.442 67.937C193.896 68.189 193.308 68.315 192.678 68.315C191.53 68.315 190.613 67.937 189.927 67.181C189.241 66.411 188.898 65.438 188.898 64.262V57.899H190.872V63.968C190.872 64.724 191.054 65.347 191.418 65.837C191.796 66.327 192.377 66.572 193.161 66.572C193.945 66.572 194.54 66.341 194.946 65.879C195.352 65.403 195.555 64.773 195.555 63.989V57.899H197.529V66.131C197.529 66.789 197.564 67.412 197.634 68H195.744C195.688 67.692 195.66 67.286 195.66 66.782ZM202.215 68H200.241V52.796H202.215V68ZM206.891 68H204.917V52.796H206.891V68ZM212.112 72.221H209.949L212.469 66.887L208.122 57.899H210.39L213.54 64.871L216.564 57.899H218.685L212.112 72.221ZM231.179 68.315C229.149 68.315 227.406 67.615 225.95 66.215C224.508 64.815 223.787 62.925 223.787 60.545C223.787 58.949 224.151 57.549 224.879 56.345C225.607 55.141 226.524 54.252 227.63 53.678C228.736 53.09 229.919 52.796 231.179 52.796C232.859 52.796 234.273 53.223 235.421 54.077C236.583 54.917 237.353 56.065 237.731 57.521L235.82 58.193C235.54 57.073 235.001 56.212 234.203 55.61C233.405 54.994 232.397 54.686 231.179 54.686C229.723 54.686 228.477 55.204 227.441 56.24C226.405 57.262 225.887 58.697 225.887 60.545C225.887 62.393 226.405 63.835 227.441 64.871C228.477 65.907 229.723 66.425 231.179 66.425C232.397 66.425 233.412 66.103 234.224 65.459C235.036 64.801 235.603 63.933 235.925 62.855L237.752 63.527C237.346 64.969 236.562 66.131 235.4 67.013C234.252 67.881 232.845 68.315 231.179 68.315ZM241.284 65.606C241.9 66.236 242.649 66.551 243.531 66.551C244.413 66.551 245.155 66.236 245.757 65.606C246.373 64.962 246.681 64.073 246.681 62.939C246.681 61.819 246.373 60.944 245.757 60.314C245.155 59.67 244.413 59.348 243.531 59.348C242.649 59.348 241.9 59.67 241.284 60.314C240.682 60.944 240.381 61.819 240.381 62.939C240.381 64.073 240.682 64.962 241.284 65.606ZM239.814 59.117C240.794 58.095 242.033 57.584 243.531 57.584C245.029 57.584 246.261 58.095 247.227 59.117C248.207 60.125 248.697 61.399 248.697 62.939C248.697 64.493 248.214 65.781 247.248 66.803C246.282 67.811 245.043 68.315 243.531 68.315C242.019 68.315 240.78 67.811 239.814 66.803C238.848 65.781 238.365 64.493 238.365 62.939C238.365 61.399 238.848 60.125 239.814 59.117ZM251.742 62.918C251.742 63.982 252.001 64.85 252.519 65.522C253.051 66.194 253.779 66.53 254.703 66.53C255.585 66.53 256.292 66.187 256.824 65.501C257.356 64.815 257.622 63.94 257.622 62.876C257.622 61.826 257.363 60.979 256.845 60.335C256.327 59.691 255.62 59.369 254.724 59.369C253.828 59.369 253.107 59.698 252.561 60.356C252.015 61.014 251.742 61.868 251.742 62.918ZM257.643 66.635V66.467C257.377 66.985 256.971 67.419 256.425 67.769C255.893 68.105 255.256 68.273 254.514 68.273C253.072 68.273 251.91 67.769 251.028 66.761C250.16 65.739 249.726 64.458 249.726 62.918C249.726 61.448 250.174 60.202 251.07 59.18C251.966 58.144 253.114 57.626 254.514 57.626C255.34 57.626 256.012 57.794 256.53 58.13C257.048 58.452 257.405 58.851 257.601 59.327V52.796H259.554V66.131C259.554 66.817 259.589 67.44 259.659 68H257.748C257.678 67.608 257.643 67.153 257.643 66.635ZM263.536 61.91H269.059C269.031 61.154 268.779 60.538 268.303 60.062C267.827 59.572 267.155 59.327 266.287 59.327C265.503 59.327 264.859 59.586 264.355 60.104C263.851 60.608 263.578 61.21 263.536 61.91ZM269.353 64.535L271.054 65.123C270.76 66.061 270.214 66.831 269.416 67.433C268.618 68.021 267.652 68.315 266.518 68.315C265.104 68.315 263.9 67.832 262.906 66.866C261.926 65.886 261.436 64.57 261.436 62.918C261.436 61.378 261.912 60.104 262.864 59.096C263.816 58.088 264.95 57.584 266.266 57.584C267.792 57.584 268.982 58.067 269.836 59.033C270.69 59.985 271.117 61.266 271.117 62.876C271.117 63.128 271.103 63.338 271.075 63.506H263.473C263.487 64.402 263.781 65.137 264.355 65.711C264.943 66.285 265.664 66.572 266.518 66.572C267.96 66.572 268.905 65.893 269.353 64.535ZM274.156 62.918C274.156 63.982 274.415 64.85 274.933 65.522C275.465 66.194 276.193 66.53 277.117 66.53C277.999 66.53 278.706 66.187 279.238 65.501C279.77 64.815 280.036 63.94 280.036 62.876C280.036 61.826 279.777 60.979 279.259 60.335C278.741 59.691 278.034 59.369 277.138 59.369C276.242 59.369 275.521 59.698 274.975 60.356C274.429 61.014 274.156 61.868 274.156 62.918ZM280.057 66.635V66.467C279.791 66.985 279.385 67.419 278.839 67.769C278.307 68.105 277.67 68.273 276.928 68.273C275.486 68.273 274.324 67.769 273.442 66.761C272.574 65.739 272.14 64.458 272.14 62.918C272.14 61.448 272.588 60.202 273.484 59.18C274.38 58.144 275.528 57.626 276.928 57.626C277.754 57.626 278.426 57.794 278.944 58.13C279.462 58.452 279.819 58.851 280.015 59.327V52.796H281.968V66.131C281.968 66.817 282.003 67.44 282.073 68H280.162C280.092 67.608 280.057 67.153 280.057 66.635Z" fill="#696871"/>
</g>
<defs>
<clipPath id="clip0">
<rect width="359" height="95" fill="white"/>
</clipPath>
</defs>
</svg>
