<svg width="255" height="274" viewBox="0 0 255 274" fill="none" xmlns="http://www.w3.org/2000/svg">
<rect width="255" height="274" rx="10" fill="white"/>
<path d="M45.904 136.744L42.112 124.984H38.68L34.912 136.696L31.792 124.984H28.288L33.016 142H36.472L40.36 129.88L44.248 142H47.656L52.36 124.984H48.976L45.904 136.744ZM55.0239 134.752C55.0959 133.672 56.0079 132.424 57.6639 132.424C59.4879 132.424 60.2559 133.576 60.3039 134.752H55.0239ZM60.6159 137.824C60.2319 138.88 59.4159 139.624 57.9279 139.624C56.3439 139.624 55.0239 138.496 54.9519 136.936H63.3999C63.3999 136.888 63.4479 136.408 63.4479 135.952C63.4479 132.16 61.2639 129.832 57.6159 129.832C54.5919 129.832 51.8079 132.28 51.8079 136.048C51.8079 140.032 54.6639 142.36 57.9039 142.36C60.8079 142.36 62.6799 140.656 63.2799 138.616L60.6159 137.824ZM68.4032 142V124.624H65.2112V142H68.4032ZM74.2622 142V124.624H71.0702V142H74.2622ZM85.6607 138.928V128.056H88.3247C91.1087 128.056 93.4127 129.808 93.4127 133.504C93.4127 137.2 91.0847 138.928 88.3007 138.928H85.6607ZM88.4207 142C93.2687 142 96.8447 138.88 96.8447 133.504C96.8447 128.128 93.2927 124.984 88.4447 124.984H82.3487V142H88.4207ZM104.1 139.456C102.54 139.456 101.1 138.304 101.1 136.096C101.1 133.864 102.54 132.736 104.1 132.736C105.66 132.736 107.1 133.864 107.1 136.096C107.1 138.328 105.66 139.456 104.1 139.456ZM104.1 129.832C100.572 129.832 97.9079 132.448 97.9079 136.096C97.9079 139.72 100.572 142.36 104.1 142.36C107.628 142.36 110.292 139.72 110.292 136.096C110.292 132.448 107.628 129.832 104.1 129.832ZM117.365 132.784C118.949 132.784 119.693 133.792 119.981 134.776L122.837 133.816C122.333 131.824 120.509 129.832 117.293 129.832C113.861 129.832 111.173 132.448 111.173 136.096C111.173 139.72 113.909 142.36 117.389 142.36C120.533 142.36 122.381 140.344 122.909 138.376L120.101 137.44C119.837 138.352 119.021 139.432 117.389 139.432C115.757 139.432 114.365 138.232 114.365 136.096C114.365 133.96 115.733 132.784 117.365 132.784ZM132.047 142H135.095C135.047 141.592 134.975 140.776 134.975 139.864V130.192H131.783V137.056C131.783 138.424 130.967 139.384 129.551 139.384C128.063 139.384 127.391 138.328 127.391 137.008V130.192H124.199V137.656C124.199 140.224 125.831 142.312 128.687 142.312C129.935 142.312 131.303 141.832 131.951 140.728C131.951 141.208 131.999 141.76 132.047 142ZM140.823 142V135.088C140.823 133.792 141.639 132.76 143.031 132.76C144.471 132.76 145.119 133.72 145.119 134.992V142H148.287V135.088C148.287 133.816 149.103 132.76 150.471 132.76C151.935 132.76 152.559 133.72 152.559 134.992V142H155.655V134.344C155.655 131.176 153.567 129.856 151.383 129.856C149.823 129.856 148.575 130.384 147.639 131.824C147.039 130.552 145.743 129.856 144.135 129.856C142.839 129.856 141.327 130.48 140.679 131.632V130.192H137.631V142H140.823ZM160.466 134.752C160.538 133.672 161.45 132.424 163.106 132.424C164.93 132.424 165.698 133.576 165.746 134.752H160.466ZM166.058 137.824C165.674 138.88 164.858 139.624 163.37 139.624C161.786 139.624 160.466 138.496 160.394 136.936H168.842C168.842 136.888 168.89 136.408 168.89 135.952C168.89 132.16 166.706 129.832 163.058 129.832C160.034 129.832 157.25 132.28 157.25 136.048C157.25 140.032 160.106 142.36 163.346 142.36C166.25 142.36 168.122 140.656 168.722 138.616L166.058 137.824ZM173.846 135.208C173.846 133.84 174.662 132.76 176.054 132.76C177.59 132.76 178.238 133.792 178.238 135.112V142H181.43V134.56C181.43 131.968 180.086 129.88 177.158 129.88C175.886 129.88 174.47 130.432 173.75 131.656V130.192H170.654V142H173.846V135.208ZM187.855 126.664H184.975V128.32C184.975 129.376 184.399 130.192 183.151 130.192H182.551V133.024H184.687V138.52C184.687 140.8 186.127 142.168 188.431 142.168C189.367 142.168 189.943 142 190.231 141.88V139.24C190.063 139.288 189.631 139.336 189.247 139.336C188.335 139.336 187.855 139 187.855 137.968V133.024H190.231V130.192H187.855V126.664ZM194.403 134.752C194.475 133.672 195.387 132.424 197.043 132.424C198.867 132.424 199.635 133.576 199.683 134.752H194.403ZM199.995 137.824C199.611 138.88 198.795 139.624 197.307 139.624C195.723 139.624 194.403 138.496 194.331 136.936H202.779C202.779 136.888 202.827 136.408 202.827 135.952C202.827 132.16 200.643 129.832 196.995 129.832C193.971 129.832 191.187 132.28 191.187 136.048C191.187 140.032 194.043 142.36 197.283 142.36C200.187 142.36 202.059 140.656 202.659 138.616L199.995 137.824ZM215.846 124.624H212.702V131.368C212.366 130.744 211.406 129.904 209.366 129.904C206.03 129.904 203.702 132.616 203.702 136.072C203.702 139.648 206.102 142.288 209.462 142.288C211.046 142.288 212.246 141.568 212.774 140.632C212.774 141.184 212.846 141.76 212.894 142H215.942C215.894 141.52 215.846 140.656 215.846 139.864V124.624ZM206.918 136.072C206.918 133.96 208.214 132.76 209.846 132.76C211.478 132.76 212.75 133.936 212.75 136.048C212.75 138.184 211.478 139.432 209.846 139.432C208.166 139.432 206.918 138.184 206.918 136.072Z" fill="#19191B"/>
<path d="M39.76 178.632L42.208 169.656H43.824L40.592 181H38.976L36.016 171.8L33.088 181H31.52L28.24 169.656H29.856L32.352 178.536L35.2 169.656H36.848L39.76 178.632ZM46.3303 181H44.8423V173.304H46.3303V181ZM44.8103 171.16C44.6076 170.947 44.5063 170.691 44.5063 170.392C44.5063 170.093 44.6076 169.837 44.8103 169.624C45.0236 169.411 45.2796 169.304 45.5783 169.304C45.877 169.304 46.133 169.411 46.3463 169.624C46.5596 169.827 46.6663 170.083 46.6663 170.392C46.6663 170.691 46.5596 170.947 46.3463 171.16C46.133 171.363 45.877 171.464 45.5783 171.464C45.2796 171.464 45.0236 171.363 44.8103 171.16ZM50.405 170.872V173.304H52.069V174.664H50.405V178.664C50.405 179.027 50.485 179.293 50.645 179.464C50.8156 179.635 51.093 179.72 51.477 179.72C51.701 179.72 51.8983 179.699 52.069 179.656V180.936C51.813 181.032 51.4716 181.08 51.045 181.08C50.3836 181.08 49.861 180.888 49.477 180.504C49.093 180.12 48.901 179.581 48.901 178.888V174.664H47.429V173.304H47.845C48.2396 173.304 48.533 173.197 48.725 172.984C48.9276 172.76 49.029 172.472 49.029 172.12V170.872H50.405ZM55.0802 176.472V181H53.5762V169.416H55.0802V174.2C55.5922 173.453 56.3709 173.08 57.4162 173.08C58.3016 173.08 58.9789 173.363 59.4482 173.928C59.9282 174.493 60.1682 175.224 60.1682 176.12V181H58.6642V176.376C58.6642 175.085 58.0669 174.44 56.8722 174.44C56.3176 174.44 55.8856 174.632 55.5762 175.016C55.2669 175.389 55.1016 175.875 55.0802 176.472ZM67.0642 181H65.5602V169.416H67.0642V181ZM70.7065 179.176C71.1758 179.656 71.7465 179.896 72.4185 179.896C73.0905 179.896 73.6558 179.656 74.1145 179.176C74.5838 178.685 74.8185 178.008 74.8185 177.144C74.8185 176.291 74.5838 175.624 74.1145 175.144C73.6558 174.653 73.0905 174.408 72.4185 174.408C71.7465 174.408 71.1758 174.653 70.7065 175.144C70.2478 175.624 70.0185 176.291 70.0185 177.144C70.0185 178.008 70.2478 178.685 70.7065 179.176ZM69.5865 174.232C70.3332 173.453 71.2772 173.064 72.4185 173.064C73.5598 173.064 74.4985 173.453 75.2345 174.232C75.9812 175 76.3545 175.971 76.3545 177.144C76.3545 178.328 75.9865 179.309 75.2505 180.088C74.5145 180.856 73.5705 181.24 72.4185 181.24C71.2665 181.24 70.3225 180.856 69.5865 180.088C68.8505 179.309 68.4825 178.328 68.4825 177.144C68.4825 175.971 68.8505 175 69.5865 174.232ZM79.7164 170.872V173.304H81.3804V174.664H79.7164V178.664C79.7164 179.027 79.7964 179.293 79.9564 179.464C80.1271 179.635 80.4044 179.72 80.7884 179.72C81.0124 179.72 81.2097 179.699 81.3804 179.656V180.936C81.1244 181.032 80.7831 181.08 80.3564 181.08C79.6951 181.08 79.1724 180.888 78.7884 180.504C78.4044 180.12 78.2124 179.581 78.2124 178.888V174.664H76.7404V173.304H77.1564C77.5511 173.304 77.8444 173.197 78.0364 172.984C78.2391 172.76 78.3404 172.472 78.3404 172.12V170.872H79.7164ZM82.2458 179L83.6058 178.52C83.6591 178.936 83.8405 179.283 84.1498 179.56C84.4591 179.827 84.8751 179.96 85.3978 179.96C85.8031 179.96 86.1231 179.864 86.3578 179.672C86.5925 179.469 86.7098 179.224 86.7098 178.936C86.7098 178.424 86.3791 178.093 85.7178 177.944L84.4058 177.656C83.8085 177.528 83.3391 177.272 82.9978 176.888C82.6565 176.504 82.4858 176.04 82.4858 175.496C82.4858 174.835 82.7525 174.264 83.2858 173.784C83.8298 173.304 84.4751 173.064 85.2218 173.064C85.7125 173.064 86.1498 173.139 86.5338 173.288C86.9178 173.427 87.2165 173.613 87.4298 173.848C87.6431 174.083 87.8031 174.301 87.9098 174.504C88.0165 174.707 88.0965 174.915 88.1498 175.128L86.8218 175.624C86.8005 175.496 86.7631 175.373 86.7098 175.256C86.6565 175.128 86.5711 174.989 86.4538 174.84C86.3471 174.691 86.1871 174.573 85.9738 174.488C85.7605 174.392 85.5098 174.344 85.2218 174.344C84.8485 174.344 84.5391 174.445 84.2938 174.648C84.0591 174.851 83.9418 175.091 83.9418 175.368C83.9418 175.859 84.2351 176.168 84.8218 176.296L86.0698 176.568C86.7525 176.717 87.2751 176.995 87.6378 177.4C88.0111 177.795 88.1978 178.28 88.1978 178.856C88.1978 179.464 87.9471 180.013 87.4458 180.504C86.9551 180.995 86.2671 181.24 85.3818 181.24C84.4325 181.24 83.6911 181.005 83.1578 180.536C82.6245 180.056 82.3205 179.544 82.2458 179ZM94.7838 179.176C95.2531 179.656 95.8238 179.896 96.4958 179.896C97.1678 179.896 97.7331 179.656 98.1918 179.176C98.6611 178.685 98.8958 178.008 98.8958 177.144C98.8958 176.291 98.6611 175.624 98.1918 175.144C97.7331 174.653 97.1678 174.408 96.4958 174.408C95.8238 174.408 95.2531 174.653 94.7838 175.144C94.3251 175.624 94.0958 176.291 94.0958 177.144C94.0958 178.008 94.3251 178.685 94.7838 179.176ZM93.6638 174.232C94.4104 173.453 95.3544 173.064 96.4958 173.064C97.6371 173.064 98.5758 173.453 99.3118 174.232C100.058 175 100.432 175.971 100.432 177.144C100.432 178.328 100.064 179.309 99.3278 180.088C98.5918 180.856 97.6478 181.24 96.4958 181.24C95.3438 181.24 94.3998 180.856 93.6638 180.088C92.9278 179.309 92.5598 178.328 92.5598 177.144C92.5598 175.971 92.9278 175 93.6638 174.232ZM105.728 174.664H103.872V181H102.32V174.664H100.896V173.304H102.32V172.008C102.32 171.187 102.56 170.541 103.04 170.072C103.52 169.603 104.122 169.368 104.848 169.368C105.306 169.368 105.605 169.421 105.744 169.528V170.872C105.584 170.808 105.365 170.776 105.088 170.776C104.757 170.776 104.469 170.877 104.224 171.08C103.989 171.272 103.872 171.608 103.872 172.088V173.304H105.728V174.664ZM115.412 180.072C115.209 180.456 114.9 180.749 114.484 180.952C114.068 181.144 113.62 181.24 113.14 181.24C112.265 181.24 111.566 180.952 111.044 180.376C110.521 179.789 110.26 179.048 110.26 178.152V173.304H111.764V177.928C111.764 178.504 111.902 178.979 112.18 179.352C112.468 179.725 112.91 179.912 113.508 179.912C114.105 179.912 114.558 179.736 114.868 179.384C115.177 179.021 115.332 178.541 115.332 177.944V173.304H116.836V179.576C116.836 180.077 116.862 180.552 116.916 181H115.476C115.433 180.765 115.412 180.456 115.412 180.072ZM120.406 176.552V181H118.902V173.304H120.374V174.408C120.886 173.523 121.675 173.08 122.742 173.08C123.627 173.08 124.305 173.363 124.774 173.928C125.254 174.493 125.494 175.224 125.494 176.12V181H123.99V176.376C123.99 175.085 123.393 174.44 122.198 174.44C121.633 174.44 121.19 174.643 120.87 175.048C120.561 175.443 120.406 175.944 120.406 176.552ZM128.874 181H127.386V173.304H128.874V181ZM127.354 171.16C127.152 170.947 127.05 170.691 127.05 170.392C127.05 170.093 127.152 169.837 127.354 169.624C127.568 169.411 127.824 169.304 128.122 169.304C128.421 169.304 128.677 169.411 128.89 169.624C129.104 169.827 129.21 170.083 129.21 170.392C129.21 170.691 129.104 170.947 128.89 171.16C128.677 171.363 128.421 171.464 128.122 171.464C127.824 171.464 127.568 171.363 127.354 171.16ZM137.829 184.04H136.341V179.912C136.138 180.307 135.824 180.621 135.397 180.856C134.981 181.091 134.496 181.208 133.941 181.208C132.864 181.208 131.984 180.819 131.301 180.04C130.629 179.251 130.293 178.28 130.293 177.128C130.293 175.997 130.618 175.048 131.269 174.28C131.93 173.501 132.81 173.112 133.909 173.112C134.528 173.112 135.045 173.245 135.461 173.512C135.888 173.779 136.192 174.104 136.373 174.488V173.304H137.829V184.04ZM132.437 175.192C132.032 175.683 131.829 176.328 131.829 177.128C131.829 177.928 132.032 178.589 132.437 179.112C132.853 179.624 133.402 179.88 134.085 179.88C134.757 179.88 135.301 179.624 135.717 179.112C136.144 178.589 136.357 177.928 136.357 177.128C136.357 176.328 136.149 175.683 135.733 175.192C135.317 174.691 134.768 174.44 134.085 174.44C133.392 174.44 132.842 174.691 132.437 175.192ZM144.802 180.072C144.599 180.456 144.29 180.749 143.874 180.952C143.458 181.144 143.01 181.24 142.53 181.24C141.655 181.24 140.956 180.952 140.434 180.376C139.911 179.789 139.65 179.048 139.65 178.152V173.304H141.154V177.928C141.154 178.504 141.292 178.979 141.57 179.352C141.858 179.725 142.3 179.912 142.898 179.912C143.495 179.912 143.948 179.736 144.258 179.384C144.567 179.021 144.722 178.541 144.722 177.944V173.304H146.226V179.576C146.226 180.077 146.252 180.552 146.306 181H144.866C144.823 180.765 144.802 180.456 144.802 180.072ZM149.19 176.36H153.398C153.376 175.784 153.184 175.315 152.822 174.952C152.459 174.579 151.947 174.392 151.286 174.392C150.688 174.392 150.198 174.589 149.814 174.984C149.43 175.368 149.222 175.827 149.19 176.36ZM153.622 178.36L154.918 178.808C154.694 179.523 154.278 180.109 153.67 180.568C153.062 181.016 152.326 181.24 151.462 181.24C150.384 181.24 149.467 180.872 148.71 180.136C147.963 179.389 147.59 178.387 147.59 177.128C147.59 175.955 147.952 174.984 148.678 174.216C149.403 173.448 150.267 173.064 151.27 173.064C152.432 173.064 153.339 173.432 153.99 174.168C154.64 174.893 154.966 175.869 154.966 177.096C154.966 177.288 154.955 177.448 154.934 177.576H149.142C149.152 178.259 149.376 178.819 149.814 179.256C150.262 179.693 150.811 179.912 151.462 179.912C152.56 179.912 153.28 179.395 153.622 178.36ZM161.373 181H159.885V169.416H161.373V174.392C161.576 174.019 161.896 173.709 162.333 173.464C162.781 173.208 163.309 173.08 163.917 173.08C165.037 173.08 165.906 173.459 166.525 174.216C167.144 174.973 167.453 175.939 167.453 177.112C167.453 178.296 167.133 179.277 166.493 180.056C165.853 180.824 164.978 181.208 163.869 181.208C162.717 181.208 161.885 180.765 161.373 179.88V181ZM165.293 179.112C165.709 178.611 165.917 177.944 165.917 177.112C165.917 176.28 165.709 175.624 165.293 175.144C164.888 174.653 164.338 174.408 163.645 174.408C162.973 174.408 162.424 174.653 161.997 175.144C161.57 175.635 161.357 176.291 161.357 177.112C161.357 177.933 161.57 178.6 161.997 179.112C162.424 179.613 162.973 179.864 163.645 179.864C164.328 179.864 164.877 179.613 165.293 179.112ZM170.373 181H168.869V169.416H170.373V181ZM174.016 179.176C174.485 179.656 175.056 179.896 175.728 179.896C176.4 179.896 176.965 179.656 177.424 179.176C177.893 178.685 178.128 178.008 178.128 177.144C178.128 176.291 177.893 175.624 177.424 175.144C176.965 174.653 176.4 174.408 175.728 174.408C175.056 174.408 174.485 174.653 174.016 175.144C173.557 175.624 173.328 176.291 173.328 177.144C173.328 178.008 173.557 178.685 174.016 179.176ZM172.896 174.232C173.642 173.453 174.586 173.064 175.728 173.064C176.869 173.064 177.808 173.453 178.544 174.232C179.29 175 179.664 175.971 179.664 177.144C179.664 178.328 179.296 179.309 178.56 180.088C177.824 180.856 176.88 181.24 175.728 181.24C174.576 181.24 173.632 180.856 172.896 180.088C172.16 179.309 171.792 178.328 171.792 177.144C171.792 175.971 172.16 175 172.896 174.232ZM184.32 174.456C183.669 174.456 183.114 174.691 182.656 175.16C182.208 175.629 181.984 176.291 181.984 177.144C181.984 177.987 182.208 178.648 182.656 179.128C183.114 179.608 183.674 179.848 184.336 179.848C184.976 179.848 185.461 179.688 185.792 179.368C186.133 179.048 186.362 178.68 186.48 178.264L187.808 178.84C187.594 179.48 187.189 180.04 186.592 180.52C186.005 181 185.253 181.24 184.336 181.24C183.216 181.24 182.288 180.851 181.552 180.072C180.816 179.293 180.448 178.317 180.448 177.144C180.448 175.949 180.816 174.973 181.552 174.216C182.288 173.448 183.21 173.064 184.32 173.064C185.258 173.064 186.016 173.304 186.592 173.784C187.178 174.264 187.562 174.84 187.744 175.512L186.384 176.088C186.266 175.64 186.042 175.256 185.712 174.936C185.381 174.616 184.917 174.456 184.32 174.456ZM195.968 173.304L192.688 176.552L196.032 181H194.144L191.632 177.608L190.56 178.68V181H189.072V169.416H190.56V176.712L193.888 173.304H195.968ZM196.258 179L197.618 178.52C197.671 178.936 197.853 179.283 198.162 179.56C198.471 179.827 198.887 179.96 199.41 179.96C199.815 179.96 200.135 179.864 200.37 179.672C200.605 179.469 200.722 179.224 200.722 178.936C200.722 178.424 200.391 178.093 199.73 177.944L198.418 177.656C197.821 177.528 197.351 177.272 197.01 176.888C196.669 176.504 196.498 176.04 196.498 175.496C196.498 174.835 196.765 174.264 197.298 173.784C197.842 173.304 198.487 173.064 199.234 173.064C199.725 173.064 200.162 173.139 200.546 173.288C200.93 173.427 201.229 173.613 201.442 173.848C201.655 174.083 201.815 174.301 201.922 174.504C202.029 174.707 202.109 174.915 202.162 175.128L200.834 175.624C200.813 175.496 200.775 175.373 200.722 175.256C200.669 175.128 200.583 174.989 200.466 174.84C200.359 174.691 200.199 174.573 199.986 174.488C199.773 174.392 199.522 174.344 199.234 174.344C198.861 174.344 198.551 174.445 198.306 174.648C198.071 174.851 197.954 175.091 197.954 175.368C197.954 175.859 198.247 176.168 198.834 176.296L200.082 176.568C200.765 176.717 201.287 176.995 201.65 177.4C202.023 177.795 202.21 178.28 202.21 178.856C202.21 179.464 201.959 180.013 201.458 180.504C200.967 180.995 200.279 181.24 199.394 181.24C198.445 181.24 197.703 181.005 197.17 180.536C196.637 180.056 196.333 179.544 196.258 179ZM203.552 179.976C203.552 179.688 203.664 179.437 203.888 179.224C204.112 179.011 204.389 178.904 204.72 178.904C205.083 178.904 205.387 179.037 205.632 179.304C205.888 179.571 206.016 179.944 206.016 180.424C206.016 181.384 205.771 182.125 205.28 182.648C204.789 183.171 204.245 183.469 203.648 183.544V182.712C204.032 182.627 204.347 182.413 204.592 182.072C204.837 181.741 204.965 181.379 204.976 180.984C204.901 181.037 204.784 181.064 204.624 181.064C204.315 181.064 204.059 180.968 203.856 180.776C203.653 180.573 203.552 180.307 203.552 179.976ZM31.2 212.216H29.552L31.472 208.152L28.16 201.304H29.888L32.288 206.616L34.592 201.304H36.208L31.2 212.216ZM38.4263 207.176C38.8956 207.656 39.4663 207.896 40.1383 207.896C40.8103 207.896 41.3756 207.656 41.8343 207.176C42.3036 206.685 42.5383 206.008 42.5383 205.144C42.5383 204.291 42.3036 203.624 41.8343 203.144C41.3756 202.653 40.8103 202.408 40.1383 202.408C39.4663 202.408 38.8956 202.653 38.4263 203.144C37.9676 203.624 37.7383 204.291 37.7383 205.144C37.7383 206.008 37.9676 206.685 38.4263 207.176ZM37.3063 202.232C38.053 201.453 38.997 201.064 40.1383 201.064C41.2796 201.064 42.2183 201.453 42.9543 202.232C43.701 203 44.0743 203.971 44.0743 205.144C44.0743 206.328 43.7063 207.309 42.9703 208.088C42.2343 208.856 41.2903 209.24 40.1383 209.24C38.9863 209.24 38.0423 208.856 37.3063 208.088C36.5703 207.309 36.2023 206.328 36.2023 205.144C36.2023 203.971 36.5703 203 37.3063 202.232ZM50.4922 208.072C50.2895 208.456 49.9802 208.749 49.5642 208.952C49.1482 209.144 48.7002 209.24 48.2202 209.24C47.3455 209.24 46.6469 208.952 46.1242 208.376C45.6015 207.789 45.3402 207.048 45.3402 206.152V201.304H46.8442V205.928C46.8442 206.504 46.9829 206.979 47.2602 207.352C47.5482 207.725 47.9909 207.912 48.5882 207.912C49.1855 207.912 49.6389 207.736 49.9482 207.384C50.2575 207.021 50.4122 206.541 50.4122 205.944V201.304H51.9162V207.576C51.9162 208.077 51.9429 208.552 51.9962 209H50.5562C50.5135 208.765 50.4922 208.456 50.4922 208.072ZM60.7143 202.456C60.0636 202.456 59.5089 202.691 59.0503 203.16C58.6023 203.629 58.3783 204.291 58.3783 205.144C58.3783 205.987 58.6023 206.648 59.0503 207.128C59.5089 207.608 60.0689 207.848 60.7303 207.848C61.3703 207.848 61.8556 207.688 62.1863 207.368C62.5276 207.048 62.7569 206.68 62.8743 206.264L64.2023 206.84C63.9889 207.48 63.5836 208.04 62.9863 208.52C62.3996 209 61.6476 209.24 60.7303 209.24C59.6103 209.24 58.6823 208.851 57.9463 208.072C57.2103 207.293 56.8423 206.317 56.8423 205.144C56.8423 203.949 57.2103 202.973 57.9463 202.216C58.6823 201.448 59.6049 201.064 60.7143 201.064C61.6529 201.064 62.4103 201.304 62.9863 201.784C63.5729 202.264 63.9569 202.84 64.1383 203.512L62.7783 204.088C62.6609 203.64 62.4369 203.256 62.1063 202.936C61.7756 202.616 61.3116 202.456 60.7143 202.456ZM64.9083 206.936C64.9083 206.275 65.1217 205.747 65.5483 205.352C65.975 204.947 66.5403 204.696 67.2443 204.6L69.3243 204.296C69.719 204.243 69.9163 204.051 69.9163 203.72C69.9163 203.315 69.7777 202.984 69.5003 202.728C69.223 202.472 68.807 202.344 68.2523 202.344C67.7403 202.344 67.335 202.488 67.0363 202.776C66.7377 203.053 66.5617 203.427 66.5083 203.896L65.0683 203.56C65.143 202.824 65.479 202.227 66.0763 201.768C66.6737 201.299 67.3883 201.064 68.2203 201.064C69.3083 201.064 70.1137 201.331 70.6363 201.864C71.159 202.387 71.4203 203.059 71.4203 203.88V207.736C71.4203 208.195 71.4523 208.616 71.5163 209H70.0443C69.991 208.68 69.9643 208.333 69.9643 207.96C69.751 208.301 69.4363 208.6 69.0203 208.856C68.615 209.112 68.103 209.24 67.4843 209.24C66.727 209.24 66.1083 209.016 65.6283 208.568C65.1483 208.109 64.9083 207.565 64.9083 206.936ZM67.6923 207.976C68.3643 207.976 68.903 207.795 69.3083 207.432C69.7137 207.069 69.9163 206.493 69.9163 205.704V205.352L67.5643 205.704C67.223 205.757 66.951 205.88 66.7483 206.072C66.5457 206.264 66.4443 206.525 66.4443 206.856C66.4443 207.155 66.5563 207.416 66.7803 207.64C67.015 207.864 67.319 207.976 67.6923 207.976ZM74.7671 204.552V209H73.2631V201.304H74.7351V202.408C75.2471 201.523 76.0364 201.08 77.1031 201.08C77.9884 201.08 78.6658 201.363 79.1351 201.928C79.6151 202.493 79.8551 203.224 79.8551 204.12V209H78.3511V204.376C78.3511 203.085 77.7538 202.44 76.5591 202.44C75.9938 202.44 75.5511 202.643 75.2311 203.048C74.9218 203.443 74.7671 203.944 74.7671 204.552ZM86.2231 204.36H90.4311C90.4097 203.784 90.2177 203.315 89.8551 202.952C89.4924 202.579 88.9804 202.392 88.3191 202.392C87.7217 202.392 87.2311 202.589 86.8471 202.984C86.4631 203.368 86.2551 203.827 86.2231 204.36ZM90.6551 206.36L91.9511 206.808C91.7271 207.523 91.3111 208.109 90.7031 208.568C90.0951 209.016 89.3591 209.24 88.4951 209.24C87.4177 209.24 86.5004 208.872 85.7431 208.136C84.9964 207.389 84.6231 206.387 84.6231 205.128C84.6231 203.955 84.9857 202.984 85.7111 202.216C86.4364 201.448 87.3004 201.064 88.3031 201.064C89.4657 201.064 90.3724 201.432 91.0231 202.168C91.6737 202.893 91.9991 203.869 91.9991 205.096C91.9991 205.288 91.9884 205.448 91.9671 205.576H86.1751C86.1857 206.259 86.4097 206.819 86.8471 207.256C87.2951 207.693 87.8444 207.912 88.4951 207.912C89.5937 207.912 90.3137 207.395 90.6551 206.36ZM92.9387 206.936C92.9387 206.275 93.1521 205.747 93.5787 205.352C94.0054 204.947 94.5707 204.696 95.2747 204.6L97.3547 204.296C97.7494 204.243 97.9467 204.051 97.9467 203.72C97.9467 203.315 97.8081 202.984 97.5307 202.728C97.2534 202.472 96.8374 202.344 96.2827 202.344C95.7707 202.344 95.3654 202.488 95.0667 202.776C94.7681 203.053 94.5921 203.427 94.5387 203.896L93.0987 203.56C93.1734 202.824 93.5094 202.227 94.1067 201.768C94.7041 201.299 95.4187 201.064 96.2507 201.064C97.3387 201.064 98.1441 201.331 98.6667 201.864C99.1894 202.387 99.4507 203.059 99.4507 203.88V207.736C99.4507 208.195 99.4827 208.616 99.5467 209H98.0747C98.0214 208.68 97.9947 208.333 97.9947 207.96C97.7814 208.301 97.4667 208.6 97.0507 208.856C96.6454 209.112 96.1334 209.24 95.5147 209.24C94.7574 209.24 94.1387 209.016 93.6587 208.568C93.1787 208.109 92.9387 207.565 92.9387 206.936ZM95.7227 207.976C96.3947 207.976 96.9334 207.795 97.3387 207.432C97.7441 207.069 97.9467 206.493 97.9467 205.704V205.352L95.5947 205.704C95.2534 205.757 94.9814 205.88 94.7787 206.072C94.5761 206.264 94.4747 206.525 94.4747 206.856C94.4747 207.155 94.5867 207.416 94.8107 207.64C95.0454 207.864 95.3494 207.976 95.7227 207.976ZM100.574 207L101.934 206.52C101.987 206.936 102.168 207.283 102.478 207.56C102.787 207.827 103.203 207.96 103.726 207.96C104.131 207.96 104.451 207.864 104.686 207.672C104.92 207.469 105.038 207.224 105.038 206.936C105.038 206.424 104.707 206.093 104.046 205.944L102.734 205.656C102.136 205.528 101.667 205.272 101.326 204.888C100.984 204.504 100.814 204.04 100.814 203.496C100.814 202.835 101.08 202.264 101.614 201.784C102.158 201.304 102.803 201.064 103.55 201.064C104.04 201.064 104.478 201.139 104.862 201.288C105.246 201.427 105.544 201.613 105.758 201.848C105.971 202.083 106.131 202.301 106.238 202.504C106.344 202.707 106.424 202.915 106.478 203.128L105.15 203.624C105.128 203.496 105.091 203.373 105.038 203.256C104.984 203.128 104.899 202.989 104.782 202.84C104.675 202.691 104.515 202.573 104.302 202.488C104.088 202.392 103.838 202.344 103.55 202.344C103.176 202.344 102.867 202.445 102.622 202.648C102.387 202.851 102.27 203.091 102.27 203.368C102.27 203.859 102.563 204.168 103.15 204.296L104.398 204.568C105.08 204.717 105.603 204.995 105.966 205.4C106.339 205.795 106.526 206.28 106.526 206.856C106.526 207.464 106.275 208.013 105.774 208.504C105.283 208.995 104.595 209.24 103.71 209.24C102.76 209.24 102.019 209.005 101.486 208.536C100.952 208.056 100.648 207.544 100.574 207ZM109.516 209H108.028V201.304H109.516V209ZM107.996 199.16C107.793 198.947 107.692 198.691 107.692 198.392C107.692 198.093 107.793 197.837 107.996 197.624C108.209 197.411 108.465 197.304 108.764 197.304C109.062 197.304 109.318 197.411 109.532 197.624C109.745 197.827 109.852 198.083 109.852 198.392C109.852 198.691 109.745 198.947 109.532 199.16C109.318 199.363 109.062 199.464 108.764 199.464C108.465 199.464 108.209 199.363 107.996 199.16ZM113.078 209H111.574V197.416H113.078V209ZM117.057 212.216H115.409L117.329 208.152L114.017 201.304H115.745L118.145 206.616L120.449 201.304H122.065L117.057 212.216ZM127.999 209H126.511V197.416H127.999V202.392C128.202 202.019 128.522 201.709 128.959 201.464C129.407 201.208 129.935 201.08 130.543 201.08C131.663 201.08 132.533 201.459 133.151 202.216C133.77 202.973 134.079 203.939 134.079 205.112C134.079 206.296 133.759 207.277 133.119 208.056C132.479 208.824 131.605 209.208 130.495 209.208C129.343 209.208 128.511 208.765 127.999 207.88V209ZM131.919 207.112C132.335 206.611 132.543 205.944 132.543 205.112C132.543 204.28 132.335 203.624 131.919 203.144C131.514 202.653 130.965 202.408 130.271 202.408C129.599 202.408 129.05 202.653 128.623 203.144C128.197 203.635 127.983 204.291 127.983 205.112C127.983 205.933 128.197 206.6 128.623 207.112C129.05 207.613 129.599 207.864 130.271 207.864C130.954 207.864 131.503 207.613 131.919 207.112ZM140.489 208.072C140.287 208.456 139.977 208.749 139.561 208.952C139.145 209.144 138.697 209.24 138.217 209.24C137.343 209.24 136.644 208.952 136.121 208.376C135.599 207.789 135.337 207.048 135.337 206.152V201.304H136.841V205.928C136.841 206.504 136.98 206.979 137.257 207.352C137.545 207.725 137.988 207.912 138.585 207.912C139.183 207.912 139.636 207.736 139.945 207.384C140.255 207.021 140.409 206.541 140.409 205.944V201.304H141.913V207.576C141.913 208.077 141.94 208.552 141.993 209H140.553C140.511 208.765 140.489 208.456 140.489 208.072ZM145.468 209H143.98V201.304H145.468V209ZM143.948 199.16C143.745 198.947 143.644 198.691 143.644 198.392C143.644 198.093 143.745 197.837 143.948 197.624C144.161 197.411 144.417 197.304 144.716 197.304C145.014 197.304 145.27 197.411 145.484 197.624C145.697 197.827 145.804 198.083 145.804 198.392C145.804 198.691 145.697 198.947 145.484 199.16C145.27 199.363 145.014 199.464 144.716 199.464C144.417 199.464 144.161 199.363 143.948 199.16ZM149.03 209H147.526V197.416H149.03V209ZM151.985 205.128C151.985 205.939 152.182 206.6 152.577 207.112C152.982 207.624 153.537 207.88 154.241 207.88C154.913 207.88 155.451 207.619 155.857 207.096C156.262 206.573 156.465 205.907 156.465 205.096C156.465 204.296 156.267 203.651 155.873 203.16C155.478 202.669 154.939 202.424 154.257 202.424C153.574 202.424 153.025 202.675 152.609 203.176C152.193 203.677 151.985 204.328 151.985 205.128ZM156.481 207.96V207.832C156.278 208.227 155.969 208.557 155.553 208.824C155.147 209.08 154.662 209.208 154.097 209.208C152.998 209.208 152.113 208.824 151.441 208.056C150.779 207.277 150.449 206.301 150.449 205.128C150.449 204.008 150.79 203.059 151.473 202.28C152.155 201.491 153.03 201.096 154.097 201.096C154.726 201.096 155.238 201.224 155.633 201.48C156.027 201.725 156.299 202.029 156.449 202.392V197.416H157.937V207.576C157.937 208.099 157.963 208.573 158.017 209H156.561C156.507 208.701 156.481 208.355 156.481 207.96ZM163.014 206.936C163.014 206.275 163.228 205.747 163.654 205.352C164.081 204.947 164.646 204.696 165.35 204.6L167.43 204.296C167.825 204.243 168.022 204.051 168.022 203.72C168.022 203.315 167.884 202.984 167.606 202.728C167.329 202.472 166.913 202.344 166.358 202.344C165.846 202.344 165.441 202.488 165.142 202.776C164.844 203.053 164.668 203.427 164.614 203.896L163.174 203.56C163.249 202.824 163.585 202.227 164.182 201.768C164.78 201.299 165.494 201.064 166.326 201.064C167.414 201.064 168.22 201.331 168.742 201.864C169.265 202.387 169.526 203.059 169.526 203.88V207.736C169.526 208.195 169.558 208.616 169.622 209H168.15C168.097 208.68 168.07 208.333 168.07 207.96C167.857 208.301 167.542 208.6 167.126 208.856C166.721 209.112 166.209 209.24 165.59 209.24C164.833 209.24 164.214 209.016 163.734 208.568C163.254 208.109 163.014 207.565 163.014 206.936ZM165.798 207.976C166.47 207.976 167.009 207.795 167.414 207.432C167.82 207.069 168.022 206.493 168.022 205.704V205.352L165.67 205.704C165.329 205.757 165.057 205.88 164.854 206.072C164.652 206.264 164.55 206.525 164.55 206.856C164.55 207.155 164.662 207.416 164.886 207.64C165.121 207.864 165.425 207.976 165.798 207.976ZM176.357 212.04H174.869V201.304H176.325V202.504C176.549 202.099 176.885 201.768 177.333 201.512C177.781 201.256 178.304 201.128 178.901 201.128C180.01 201.128 180.874 201.507 181.493 202.264C182.122 203.021 182.437 203.981 182.437 205.144C182.437 206.317 182.112 207.288 181.461 208.056C180.821 208.824 179.952 209.208 178.853 209.208C178.288 209.208 177.786 209.091 177.349 208.856C176.912 208.621 176.581 208.323 176.357 207.96V212.04ZM180.901 205.144C180.901 204.365 180.693 203.725 180.277 203.224C179.872 202.712 179.322 202.456 178.629 202.456C177.946 202.456 177.392 202.712 176.965 203.224C176.549 203.725 176.341 204.365 176.341 205.144C176.341 205.944 176.549 206.6 176.965 207.112C177.392 207.613 177.946 207.864 178.629 207.864C179.312 207.864 179.861 207.613 180.277 207.112C180.693 206.6 180.901 205.944 180.901 205.144ZM183.373 206.936C183.373 206.275 183.586 205.747 184.013 205.352C184.44 204.947 185.005 204.696 185.709 204.6L187.789 204.296C188.184 204.243 188.381 204.051 188.381 203.72C188.381 203.315 188.242 202.984 187.965 202.728C187.688 202.472 187.272 202.344 186.717 202.344C186.205 202.344 185.8 202.488 185.501 202.776C185.202 203.053 185.026 203.427 184.973 203.896L183.533 203.56C183.608 202.824 183.944 202.227 184.541 201.768C185.138 201.299 185.853 201.064 186.685 201.064C187.773 201.064 188.578 201.331 189.101 201.864C189.624 202.387 189.885 203.059 189.885 203.88V207.736C189.885 208.195 189.917 208.616 189.981 209H188.509C188.456 208.68 188.429 208.333 188.429 207.96C188.216 208.301 187.901 208.6 187.485 208.856C187.08 209.112 186.568 209.24 185.949 209.24C185.192 209.24 184.573 209.016 184.093 208.568C183.613 208.109 183.373 207.565 183.373 206.936ZM186.157 207.976C186.829 207.976 187.368 207.795 187.773 207.432C188.178 207.069 188.381 206.493 188.381 205.704V205.352L186.029 205.704C185.688 205.757 185.416 205.88 185.213 206.072C185.01 206.264 184.909 206.525 184.909 206.856C184.909 207.155 185.021 207.416 185.245 207.64C185.48 207.864 185.784 207.976 186.157 207.976ZM191.168 209.416L192.624 209.08C192.677 209.624 192.896 210.072 193.28 210.424C193.664 210.787 194.144 210.968 194.72 210.968C196.288 210.968 197.072 210.136 197.072 208.472V207.368C196.88 207.741 196.576 208.045 196.16 208.28C195.755 208.515 195.275 208.632 194.72 208.632C193.696 208.632 192.848 208.285 192.176 207.592C191.515 206.888 191.184 205.992 191.184 204.904C191.184 203.848 191.515 202.963 192.176 202.248C192.837 201.523 193.685 201.16 194.72 201.16C195.893 201.16 196.683 201.565 197.088 202.376V201.304H198.576V208.424C198.576 208.936 198.507 209.411 198.368 209.848C198.24 210.296 198.032 210.707 197.744 211.08C197.456 211.453 197.051 211.747 196.528 211.96C196.016 212.173 195.413 212.28 194.72 212.28C193.771 212.28 192.965 212.008 192.304 211.464C191.643 210.931 191.264 210.248 191.168 209.416ZM194.944 207.368C195.595 207.368 196.123 207.144 196.528 206.696C196.933 206.237 197.136 205.64 197.136 204.904C197.136 204.168 196.933 203.576 196.528 203.128C196.123 202.669 195.595 202.44 194.944 202.44C194.283 202.44 193.744 202.664 193.328 203.112C192.923 203.56 192.72 204.157 192.72 204.904C192.72 205.661 192.917 206.264 193.312 206.712C193.717 207.149 194.261 207.368 194.944 207.368ZM201.454 204.36H205.662C205.64 203.784 205.448 203.315 205.086 202.952C204.723 202.579 204.211 202.392 203.55 202.392C202.952 202.392 202.462 202.589 202.078 202.984C201.694 203.368 201.486 203.827 201.454 204.36ZM205.886 206.36L207.182 206.808C206.958 207.523 206.542 208.109 205.934 208.568C205.326 209.016 204.59 209.24 203.726 209.24C202.648 209.24 201.731 208.872 200.974 208.136C200.227 207.389 199.854 206.387 199.854 205.128C199.854 203.955 200.216 202.984 200.942 202.216C201.667 201.448 202.531 201.064 203.534 201.064C204.696 201.064 205.603 201.432 206.254 202.168C206.904 202.893 207.23 203.869 207.23 205.096C207.23 205.288 207.219 205.448 207.198 205.576H201.406C201.416 206.259 201.64 206.819 202.078 207.256C202.526 207.693 203.075 207.912 203.726 207.912C204.824 207.912 205.544 207.395 205.886 206.36ZM33.616 229.304H35.168L37.168 235.096L38.864 229.304H40.448L37.952 237H36.4L34.352 231.144L32.352 237H30.768L28.24 229.304H29.888L31.616 235.096L33.616 229.304ZM42.9553 237H41.4673V229.304H42.9553V237ZM41.4353 227.16C41.2326 226.947 41.1313 226.691 41.1313 226.392C41.1313 226.093 41.2326 225.837 41.4353 225.624C41.6486 225.411 41.9046 225.304 42.2033 225.304C42.502 225.304 42.758 225.411 42.9713 225.624C43.1846 225.827 43.2913 226.083 43.2913 226.392C43.2913 226.691 43.1846 226.947 42.9713 227.16C42.758 227.363 42.502 227.464 42.2033 227.464C41.9046 227.464 41.6486 227.363 41.4353 227.16ZM47.03 226.872V229.304H48.694V230.664H47.03V234.664C47.03 235.027 47.11 235.293 47.27 235.464C47.4406 235.635 47.718 235.72 48.102 235.72C48.326 235.72 48.5233 235.699 48.694 235.656V236.936C48.438 237.032 48.0966 237.08 47.67 237.08C47.0086 237.08 46.486 236.888 46.102 236.504C45.718 236.12 45.526 235.581 45.526 234.888V230.664H44.054V229.304H44.47C44.8646 229.304 45.158 229.197 45.35 228.984C45.5526 228.76 45.654 228.472 45.654 228.12V226.872H47.03ZM51.7052 232.472V237H50.2012V225.416H51.7052V230.2C52.2172 229.453 52.9959 229.08 54.0412 229.08C54.9266 229.08 55.6039 229.363 56.0732 229.928C56.5532 230.493 56.7932 231.224 56.7932 232.12V237H55.2892V232.376C55.2892 231.085 54.6919 230.44 53.4972 230.44C52.9426 230.44 52.5106 230.632 52.2012 231.016C51.8919 231.389 51.7266 231.875 51.7052 232.472ZM60.2694 235.176C60.7387 235.656 61.3094 235.896 61.9814 235.896C62.6534 235.896 63.2187 235.656 63.6774 235.176C64.1467 234.685 64.3814 234.008 64.3814 233.144C64.3814 232.291 64.1467 231.624 63.6774 231.144C63.2187 230.653 62.6534 230.408 61.9814 230.408C61.3094 230.408 60.7387 230.653 60.2694 231.144C59.8107 231.624 59.5814 232.291 59.5814 233.144C59.5814 234.008 59.8107 234.685 60.2694 235.176ZM59.1494 230.232C59.8961 229.453 60.8401 229.064 61.9814 229.064C63.1227 229.064 64.0614 229.453 64.7974 230.232C65.5441 231 65.9174 231.971 65.9174 233.144C65.9174 234.328 65.5494 235.309 64.8134 236.088C64.0774 236.856 63.1334 237.24 61.9814 237.24C60.8294 237.24 59.8854 236.856 59.1494 236.088C58.4134 235.309 58.0454 234.328 58.0454 233.144C58.0454 231.971 58.4134 231 59.1494 230.232ZM72.3353 236.072C72.1327 236.456 71.8233 236.749 71.4073 236.952C70.9913 237.144 70.5433 237.24 70.0633 237.24C69.1887 237.24 68.49 236.952 67.9673 236.376C67.4447 235.789 67.1833 235.048 67.1833 234.152V229.304H68.6873V233.928C68.6873 234.504 68.826 234.979 69.1033 235.352C69.3913 235.725 69.834 235.912 70.4313 235.912C71.0287 235.912 71.482 235.736 71.7913 235.384C72.1007 235.021 72.2553 234.541 72.2553 233.944V229.304H73.7593V235.576C73.7593 236.077 73.786 236.552 73.8393 237H72.3993C72.3567 236.765 72.3353 236.456 72.3353 236.072ZM77.8416 226.872V229.304H79.5056V230.664H77.8416V234.664C77.8416 235.027 77.9216 235.293 78.0816 235.464C78.2523 235.635 78.5296 235.72 78.9136 235.72C79.1376 235.72 79.3349 235.699 79.5056 235.656V236.936C79.2496 237.032 78.9083 237.08 78.4816 237.08C77.8203 237.08 77.2976 236.888 76.9136 236.504C76.5296 236.12 76.3376 235.581 76.3376 234.888V230.664H74.8656V229.304H75.2816C75.6763 229.304 75.9696 229.197 76.1616 228.984C76.3643 228.76 76.4656 228.472 76.4656 228.12V226.872H77.8416ZM87.7447 230.456C87.094 230.456 86.5394 230.691 86.0807 231.16C85.6327 231.629 85.4087 232.291 85.4087 233.144C85.4087 233.987 85.6327 234.648 86.0807 235.128C86.5394 235.608 87.0994 235.848 87.7607 235.848C88.4007 235.848 88.886 235.688 89.2167 235.368C89.558 235.048 89.7874 234.68 89.9047 234.264L91.2327 234.84C91.0194 235.48 90.614 236.04 90.0167 236.52C89.43 237 88.678 237.24 87.7607 237.24C86.6407 237.24 85.7127 236.851 84.9767 236.072C84.2407 235.293 83.8727 234.317 83.8727 233.144C83.8727 231.949 84.2407 230.973 84.9767 230.216C85.7127 229.448 86.6354 229.064 87.7447 229.064C88.6834 229.064 89.4407 229.304 90.0167 229.784C90.6034 230.264 90.9874 230.84 91.1687 231.512L89.8087 232.088C89.6914 231.64 89.4674 231.256 89.1367 230.936C88.806 230.616 88.342 230.456 87.7447 230.456ZM94.0027 235.176C94.4721 235.656 95.0427 235.896 95.7147 235.896C96.3867 235.896 96.9521 235.656 97.4107 235.176C97.8801 234.685 98.1147 234.008 98.1147 233.144C98.1147 232.291 97.8801 231.624 97.4107 231.144C96.9521 230.653 96.3867 230.408 95.7147 230.408C95.0427 230.408 94.4721 230.653 94.0027 231.144C93.5441 231.624 93.3147 232.291 93.3147 233.144C93.3147 234.008 93.5441 234.685 94.0027 235.176ZM92.8827 230.232C93.6294 229.453 94.5734 229.064 95.7147 229.064C96.8561 229.064 97.7947 229.453 98.5307 230.232C99.2774 231 99.6507 231.971 99.6507 233.144C99.6507 234.328 99.2827 235.309 98.5467 236.088C97.8107 236.856 96.8667 237.24 95.7147 237.24C94.5627 237.24 93.6187 236.856 92.8827 236.088C92.1467 235.309 91.7787 234.328 91.7787 233.144C91.7787 231.971 92.1467 231 92.8827 230.232ZM101.971 233.128C101.971 233.939 102.168 234.6 102.563 235.112C102.968 235.624 103.523 235.88 104.227 235.88C104.899 235.88 105.437 235.619 105.843 235.096C106.248 234.573 106.451 233.907 106.451 233.096C106.451 232.296 106.253 231.651 105.859 231.16C105.464 230.669 104.925 230.424 104.243 230.424C103.56 230.424 103.011 230.675 102.595 231.176C102.179 231.677 101.971 232.328 101.971 233.128ZM106.467 235.96V235.832C106.264 236.227 105.955 236.557 105.539 236.824C105.133 237.08 104.648 237.208 104.083 237.208C102.984 237.208 102.099 236.824 101.427 236.056C100.765 235.277 100.435 234.301 100.435 233.128C100.435 232.008 100.776 231.059 101.459 230.28C102.141 229.491 103.016 229.096 104.083 229.096C104.712 229.096 105.224 229.224 105.619 229.48C106.013 229.725 106.285 230.029 106.435 230.392V225.416H107.923V235.576C107.923 236.099 107.949 236.573 108.003 237H106.547C106.493 236.701 106.467 236.355 106.467 235.96ZM111.469 237H109.981V229.304H111.469V237ZM109.949 227.16C109.746 226.947 109.645 226.691 109.645 226.392C109.645 226.093 109.746 225.837 109.949 225.624C110.162 225.411 110.418 225.304 110.717 225.304C111.015 225.304 111.271 225.411 111.485 225.624C111.698 225.827 111.805 226.083 111.805 226.392C111.805 226.691 111.698 226.947 111.485 227.16C111.271 227.363 111.015 227.464 110.717 227.464C110.418 227.464 110.162 227.363 109.949 227.16ZM115.031 232.552V237H113.527V229.304H114.999V230.408C115.511 229.523 116.301 229.08 117.367 229.08C118.253 229.08 118.93 229.363 119.399 229.928C119.879 230.493 120.119 231.224 120.119 232.12V237H118.615V232.376C118.615 231.085 118.018 230.44 116.823 230.44C116.258 230.44 115.815 230.643 115.495 231.048C115.186 231.443 115.031 231.944 115.031 232.552ZM121.452 237.416L122.908 237.08C122.961 237.624 123.18 238.072 123.564 238.424C123.948 238.787 124.428 238.968 125.004 238.968C126.572 238.968 127.356 238.136 127.356 236.472V235.368C127.164 235.741 126.86 236.045 126.444 236.28C126.038 236.515 125.558 236.632 125.004 236.632C123.98 236.632 123.132 236.285 122.46 235.592C121.798 234.888 121.468 233.992 121.468 232.904C121.468 231.848 121.798 230.963 122.46 230.248C123.121 229.523 123.969 229.16 125.004 229.16C126.177 229.16 126.966 229.565 127.372 230.376V229.304H128.86V236.424C128.86 236.936 128.79 237.411 128.652 237.848C128.524 238.296 128.316 238.707 128.028 239.08C127.74 239.453 127.334 239.747 126.812 239.96C126.3 240.173 125.697 240.28 125.004 240.28C124.054 240.28 123.249 240.008 122.588 239.464C121.926 238.931 121.548 238.248 121.452 237.416ZM125.228 235.368C125.878 235.368 126.406 235.144 126.812 234.696C127.217 234.237 127.42 233.64 127.42 232.904C127.42 232.168 127.217 231.576 126.812 231.128C126.406 230.669 125.878 230.44 125.228 230.44C124.566 230.44 124.028 230.664 123.612 231.112C123.206 231.56 123.004 232.157 123.004 232.904C123.004 233.661 123.201 234.264 123.596 234.712C124.001 235.149 124.545 235.368 125.228 235.368ZM130.921 236.76C130.708 236.547 130.601 236.285 130.601 235.976C130.601 235.667 130.708 235.405 130.921 235.192C131.135 234.968 131.396 234.856 131.705 234.856C132.015 234.856 132.276 234.968 132.489 235.192C132.713 235.405 132.825 235.667 132.825 235.976C132.825 236.285 132.713 236.547 132.489 236.76C132.276 236.973 132.015 237.08 131.705 237.08C131.396 237.08 131.135 236.973 130.921 236.76Z" fill="#696871"/>
<path fill-rule="evenodd" clip-rule="evenodd" d="M62.5 95C81.5538 95 97 79.5538 97 60.5C97 41.4462 81.5538 26 62.5 26C43.4462 26 28 41.4462 28 60.5C28 79.5538 43.4462 95 62.5 95Z" fill="#5454D4" fill-opacity="0.1"/>
<path d="M71.6667 46H54.3333C52.4933 46.0022 51.0022 47.4608 51 49.2609V75.3478C51 75.5817 51.1281 75.7978 51.3357 75.9139C51.5432 76.0301 51.7985 76.0286 52.0047 75.91L63 69.5826L73.9953 75.9087C74.2013 76.0272 74.4563 76.0288 74.6638 75.913C74.8713 75.7971 74.9995 75.5815 75 75.3478V49.2609C74.9978 47.4608 73.5067 46.0022 71.6667 46Z" fill="#5454D4"/>
</svg>
