<svg width="363" height="382" viewBox="0 0 363 382" fill="none" xmlns="http://www.w3.org/2000/svg">
<g filter="url(#filter0_d)">
<rect x="54" y="2" width="255" height="274" rx="10" fill="white"/>
</g>
<path d="M87.28 144V137.376H93.88V134.328H87.256V130.128H94.696V126.984H83.944V144H87.28ZM103.221 144H106.269C106.221 143.592 106.149 142.776 106.149 141.864V132.192H102.957V139.056C102.957 140.424 102.141 141.384 100.725 141.384C99.2367 141.384 98.5647 140.328 98.5647 139.008V132.192H95.3727V139.656C95.3727 142.224 97.0047 144.312 99.8607 144.312C101.109 144.312 102.477 143.832 103.125 142.728C103.125 143.208 103.173 143.76 103.221 144ZM111.997 144V126.624H108.805V144H111.997ZM117.856 144V126.624H114.664V144H117.856ZM124.603 148.656L132.019 132.192H128.611L125.707 139.104L122.563 132.192H118.987L124.003 142.512L121.219 148.656H124.603ZM147.022 144H150.718L147.07 137.04C149.302 136.392 150.694 134.592 150.694 132.216C150.694 129.264 148.582 126.984 145.27 126.984H138.622V144H141.958V137.448H143.686L147.022 144ZM141.958 134.592V129.864H144.646C146.326 129.864 147.31 130.8 147.31 132.24C147.31 133.632 146.326 134.592 144.646 134.592H141.958ZM154.631 136.752C154.703 135.672 155.615 134.424 157.271 134.424C159.095 134.424 159.863 135.576 159.911 136.752H154.631ZM160.223 139.824C159.839 140.88 159.023 141.624 157.535 141.624C155.951 141.624 154.631 140.496 154.559 138.936H163.007C163.007 138.888 163.055 138.408 163.055 137.952C163.055 134.16 160.871 131.832 157.223 131.832C154.199 131.832 151.415 134.28 151.415 138.048C151.415 142.032 154.271 144.36 157.511 144.36C160.415 144.36 162.287 142.656 162.887 140.616L160.223 139.824ZM163.811 140.712C163.955 142.056 165.179 144.36 168.731 144.36C171.827 144.36 173.315 142.392 173.315 140.472C173.315 138.744 172.139 137.328 169.811 136.848L168.131 136.488C167.483 136.368 167.051 136.008 167.051 135.432C167.051 134.76 167.723 134.256 168.563 134.256C169.907 134.256 170.411 135.144 170.507 135.84L173.171 135.24C173.027 133.968 171.899 131.832 168.539 131.832C165.995 131.832 164.123 133.584 164.123 135.696C164.123 137.352 165.155 138.72 167.435 139.224L168.995 139.584C169.907 139.776 170.267 140.208 170.267 140.736C170.267 141.36 169.763 141.912 168.707 141.912C167.315 141.912 166.619 141.048 166.547 140.112L163.811 140.712ZM178.323 148.56V142.848C178.899 143.64 180.099 144.288 181.731 144.288C185.067 144.288 187.299 141.648 187.299 138.072C187.299 134.568 185.307 131.928 181.851 131.928C180.075 131.928 178.755 132.72 178.227 133.632V132.192H175.131V148.56H178.323ZM184.155 138.096C184.155 140.208 182.859 141.432 181.227 141.432C179.595 141.432 178.275 140.184 178.275 138.096C178.275 136.008 179.595 134.784 181.227 134.784C182.859 134.784 184.155 136.008 184.155 138.096ZM194.38 141.456C192.82 141.456 191.38 140.304 191.38 138.096C191.38 135.864 192.82 134.736 194.38 134.736C195.94 134.736 197.38 135.864 197.38 138.096C197.38 140.328 195.94 141.456 194.38 141.456ZM194.38 131.832C190.852 131.832 188.188 134.448 188.188 138.096C188.188 141.72 190.852 144.36 194.38 144.36C197.908 144.36 200.572 141.72 200.572 138.096C200.572 134.448 197.908 131.832 194.38 131.832ZM205.533 137.208C205.533 135.84 206.349 134.76 207.741 134.76C209.277 134.76 209.925 135.792 209.925 137.112V144H213.117V136.56C213.117 133.968 211.773 131.88 208.845 131.88C207.573 131.88 206.157 132.432 205.437 133.656V132.192H202.341V144H205.533V137.208ZM214.598 140.712C214.742 142.056 215.966 144.36 219.518 144.36C222.614 144.36 224.102 142.392 224.102 140.472C224.102 138.744 222.926 137.328 220.598 136.848L218.918 136.488C218.27 136.368 217.838 136.008 217.838 135.432C217.838 134.76 218.51 134.256 219.35 134.256C220.694 134.256 221.198 135.144 221.294 135.84L223.958 135.24C223.814 133.968 222.686 131.832 219.326 131.832C216.782 131.832 214.91 133.584 214.91 135.696C214.91 137.352 215.942 138.72 218.222 139.224L219.782 139.584C220.694 139.776 221.054 140.208 221.054 140.736C221.054 141.36 220.55 141.912 219.494 141.912C218.102 141.912 217.406 141.048 217.334 140.112L214.598 140.712ZM229.111 144V132.192H225.919V144H229.111ZM225.535 128.328C225.535 129.384 226.423 130.272 227.503 130.272C228.607 130.272 229.471 129.384 229.471 128.328C229.471 127.224 228.607 126.336 227.503 126.336C226.423 126.336 225.535 127.224 225.535 128.328ZM242.914 132.192H239.554L236.746 140.112L233.818 132.192H230.314L235.138 144H238.33L242.914 132.192ZM246.082 136.752C246.154 135.672 247.066 134.424 248.722 134.424C250.546 134.424 251.314 135.576 251.362 136.752H246.082ZM251.674 139.824C251.29 140.88 250.474 141.624 248.986 141.624C247.402 141.624 246.082 140.496 246.01 138.936H254.458C254.458 138.888 254.506 138.408 254.506 137.952C254.506 134.16 252.322 131.832 248.674 131.832C245.65 131.832 242.866 134.28 242.866 138.048C242.866 142.032 245.722 144.36 248.962 144.36C251.866 144.36 253.738 142.656 254.338 140.616L251.674 139.824Z" fill="#19191B"/>
<path d="M93.76 180.632L96.208 171.656H97.824L94.592 183H92.976L90.016 173.8L87.088 183H85.52L82.24 171.656H83.856L86.352 180.536L89.2 171.656H90.848L93.76 180.632ZM100.33 183H98.8423V175.304H100.33V183ZM98.8103 173.16C98.6076 172.947 98.5063 172.691 98.5063 172.392C98.5063 172.093 98.6076 171.837 98.8103 171.624C99.0236 171.411 99.2796 171.304 99.5783 171.304C99.877 171.304 100.133 171.411 100.346 171.624C100.56 171.827 100.666 172.083 100.666 172.392C100.666 172.691 100.56 172.947 100.346 173.16C100.133 173.363 99.877 173.464 99.5783 173.464C99.2796 173.464 99.0236 173.363 98.8103 173.16ZM104.405 172.872V175.304H106.069V176.664H104.405V180.664C104.405 181.027 104.485 181.293 104.645 181.464C104.816 181.635 105.093 181.72 105.477 181.72C105.701 181.72 105.898 181.699 106.069 181.656V182.936C105.813 183.032 105.472 183.08 105.045 183.08C104.384 183.08 103.861 182.888 103.477 182.504C103.093 182.12 102.901 181.581 102.901 180.888V176.664H101.429V175.304H101.845C102.24 175.304 102.533 175.197 102.725 174.984C102.928 174.76 103.029 174.472 103.029 174.12V172.872H104.405ZM109.08 178.472V183H107.576V171.416H109.08V176.2C109.592 175.453 110.371 175.08 111.416 175.08C112.302 175.08 112.979 175.363 113.448 175.928C113.928 176.493 114.168 177.224 114.168 178.12V183H112.664V178.376C112.664 177.085 112.067 176.44 110.872 176.44C110.318 176.44 109.886 176.632 109.576 177.016C109.267 177.389 109.102 177.875 109.08 178.472ZM121.064 183H119.56V171.416H121.064V183ZM124.706 181.176C125.176 181.656 125.746 181.896 126.418 181.896C127.09 181.896 127.656 181.656 128.114 181.176C128.584 180.685 128.818 180.008 128.818 179.144C128.818 178.291 128.584 177.624 128.114 177.144C127.656 176.653 127.09 176.408 126.418 176.408C125.746 176.408 125.176 176.653 124.706 177.144C124.248 177.624 124.018 178.291 124.018 179.144C124.018 180.008 124.248 180.685 124.706 181.176ZM123.586 176.232C124.333 175.453 125.277 175.064 126.418 175.064C127.56 175.064 128.498 175.453 129.234 176.232C129.981 177 130.354 177.971 130.354 179.144C130.354 180.328 129.986 181.309 129.25 182.088C128.514 182.856 127.57 183.24 126.418 183.24C125.266 183.24 124.322 182.856 123.586 182.088C122.85 181.309 122.482 180.328 122.482 179.144C122.482 177.971 122.85 177 123.586 176.232ZM133.716 172.872V175.304H135.38V176.664H133.716V180.664C133.716 181.027 133.796 181.293 133.956 181.464C134.127 181.635 134.404 181.72 134.788 181.72C135.012 181.72 135.21 181.699 135.38 181.656V182.936C135.124 183.032 134.783 183.08 134.356 183.08C133.695 183.08 133.172 182.888 132.788 182.504C132.404 182.12 132.212 181.581 132.212 180.888V176.664H130.74V175.304H131.156C131.551 175.304 131.844 175.197 132.036 174.984C132.239 174.76 132.34 174.472 132.34 174.12V172.872H133.716ZM136.246 181L137.606 180.52C137.659 180.936 137.84 181.283 138.15 181.56C138.459 181.827 138.875 181.96 139.398 181.96C139.803 181.96 140.123 181.864 140.358 181.672C140.592 181.469 140.71 181.224 140.71 180.936C140.71 180.424 140.379 180.093 139.718 179.944L138.406 179.656C137.808 179.528 137.339 179.272 136.998 178.888C136.656 178.504 136.486 178.04 136.486 177.496C136.486 176.835 136.752 176.264 137.286 175.784C137.83 175.304 138.475 175.064 139.222 175.064C139.712 175.064 140.15 175.139 140.534 175.288C140.918 175.427 141.216 175.613 141.43 175.848C141.643 176.083 141.803 176.301 141.91 176.504C142.016 176.707 142.096 176.915 142.15 177.128L140.822 177.624C140.8 177.496 140.763 177.373 140.71 177.256C140.656 177.128 140.571 176.989 140.454 176.84C140.347 176.691 140.187 176.573 139.974 176.488C139.76 176.392 139.51 176.344 139.222 176.344C138.848 176.344 138.539 176.445 138.294 176.648C138.059 176.851 137.942 177.091 137.942 177.368C137.942 177.859 138.235 178.168 138.822 178.296L140.07 178.568C140.752 178.717 141.275 178.995 141.638 179.4C142.011 179.795 142.198 180.28 142.198 180.856C142.198 181.464 141.947 182.013 141.446 182.504C140.955 182.995 140.267 183.24 139.382 183.24C138.432 183.24 137.691 183.005 137.158 182.536C136.624 182.056 136.32 181.544 136.246 181ZM148.784 181.176C149.253 181.656 149.824 181.896 150.496 181.896C151.168 181.896 151.733 181.656 152.192 181.176C152.661 180.685 152.896 180.008 152.896 179.144C152.896 178.291 152.661 177.624 152.192 177.144C151.733 176.653 151.168 176.408 150.496 176.408C149.824 176.408 149.253 176.653 148.784 177.144C148.325 177.624 148.096 178.291 148.096 179.144C148.096 180.008 148.325 180.685 148.784 181.176ZM147.664 176.232C148.41 175.453 149.354 175.064 150.496 175.064C151.637 175.064 152.576 175.453 153.312 176.232C154.058 177 154.432 177.971 154.432 179.144C154.432 180.328 154.064 181.309 153.328 182.088C152.592 182.856 151.648 183.24 150.496 183.24C149.344 183.24 148.4 182.856 147.664 182.088C146.928 181.309 146.56 180.328 146.56 179.144C146.56 177.971 146.928 177 147.664 176.232ZM159.728 176.664H157.872V183H156.32V176.664H154.896V175.304H156.32V174.008C156.32 173.187 156.56 172.541 157.04 172.072C157.52 171.603 158.122 171.368 158.848 171.368C159.306 171.368 159.605 171.421 159.744 171.528V172.872C159.584 172.808 159.365 172.776 159.088 172.776C158.757 172.776 158.469 172.877 158.224 173.08C157.989 173.272 157.872 173.608 157.872 174.088V175.304H159.728V176.664ZM169.412 182.072C169.209 182.456 168.9 182.749 168.484 182.952C168.068 183.144 167.62 183.24 167.14 183.24C166.265 183.24 165.566 182.952 165.044 182.376C164.521 181.789 164.26 181.048 164.26 180.152V175.304H165.764V179.928C165.764 180.504 165.902 180.979 166.18 181.352C166.468 181.725 166.91 181.912 167.508 181.912C168.105 181.912 168.558 181.736 168.868 181.384C169.177 181.021 169.332 180.541 169.332 179.944V175.304H170.836V181.576C170.836 182.077 170.862 182.552 170.916 183H169.476C169.433 182.765 169.412 182.456 169.412 182.072ZM174.406 178.552V183H172.902V175.304H174.374V176.408C174.886 175.523 175.675 175.08 176.742 175.08C177.627 175.08 178.305 175.363 178.774 175.928C179.254 176.493 179.494 177.224 179.494 178.12V183H177.99V178.376C177.99 177.085 177.393 176.44 176.198 176.44C175.633 176.44 175.19 176.643 174.87 177.048C174.561 177.443 174.406 177.944 174.406 178.552ZM182.874 183H181.386V175.304H182.874V183ZM181.354 173.16C181.152 172.947 181.05 172.691 181.05 172.392C181.05 172.093 181.152 171.837 181.354 171.624C181.568 171.411 181.824 171.304 182.122 171.304C182.421 171.304 182.677 171.411 182.89 171.624C183.104 171.827 183.21 172.083 183.21 172.392C183.21 172.691 183.104 172.947 182.89 173.16C182.677 173.363 182.421 173.464 182.122 173.464C181.824 173.464 181.568 173.363 181.354 173.16ZM191.829 186.04H190.341V181.912C190.138 182.307 189.824 182.621 189.397 182.856C188.981 183.091 188.496 183.208 187.941 183.208C186.864 183.208 185.984 182.819 185.301 182.04C184.629 181.251 184.293 180.28 184.293 179.128C184.293 177.997 184.618 177.048 185.269 176.28C185.93 175.501 186.81 175.112 187.909 175.112C188.528 175.112 189.045 175.245 189.461 175.512C189.888 175.779 190.192 176.104 190.373 176.488V175.304H191.829V186.04ZM186.437 177.192C186.032 177.683 185.829 178.328 185.829 179.128C185.829 179.928 186.032 180.589 186.437 181.112C186.853 181.624 187.402 181.88 188.085 181.88C188.757 181.88 189.301 181.624 189.717 181.112C190.144 180.589 190.357 179.928 190.357 179.128C190.357 178.328 190.149 177.683 189.733 177.192C189.317 176.691 188.768 176.44 188.085 176.44C187.392 176.44 186.842 176.691 186.437 177.192ZM198.802 182.072C198.599 182.456 198.29 182.749 197.874 182.952C197.458 183.144 197.01 183.24 196.53 183.24C195.655 183.24 194.956 182.952 194.434 182.376C193.911 181.789 193.65 181.048 193.65 180.152V175.304H195.154V179.928C195.154 180.504 195.292 180.979 195.57 181.352C195.858 181.725 196.3 181.912 196.898 181.912C197.495 181.912 197.948 181.736 198.258 181.384C198.567 181.021 198.722 180.541 198.722 179.944V175.304H200.226V181.576C200.226 182.077 200.252 182.552 200.306 183H198.866C198.823 182.765 198.802 182.456 198.802 182.072ZM203.19 178.36H207.398C207.376 177.784 207.184 177.315 206.822 176.952C206.459 176.579 205.947 176.392 205.286 176.392C204.688 176.392 204.198 176.589 203.814 176.984C203.43 177.368 203.222 177.827 203.19 178.36ZM207.622 180.36L208.918 180.808C208.694 181.523 208.278 182.109 207.67 182.568C207.062 183.016 206.326 183.24 205.462 183.24C204.384 183.24 203.467 182.872 202.71 182.136C201.963 181.389 201.59 180.387 201.59 179.128C201.59 177.955 201.952 176.984 202.678 176.216C203.403 175.448 204.267 175.064 205.27 175.064C206.432 175.064 207.339 175.432 207.99 176.168C208.64 176.893 208.966 177.869 208.966 179.096C208.966 179.288 208.955 179.448 208.934 179.576H203.142C203.152 180.259 203.376 180.819 203.814 181.256C204.262 181.693 204.811 181.912 205.462 181.912C206.56 181.912 207.28 181.395 207.622 180.36ZM215.373 183H213.885V171.416H215.373V176.392C215.576 176.019 215.896 175.709 216.333 175.464C216.781 175.208 217.309 175.08 217.917 175.08C219.037 175.08 219.906 175.459 220.525 176.216C221.144 176.973 221.453 177.939 221.453 179.112C221.453 180.296 221.133 181.277 220.493 182.056C219.853 182.824 218.978 183.208 217.869 183.208C216.717 183.208 215.885 182.765 215.373 181.88V183ZM219.293 181.112C219.709 180.611 219.917 179.944 219.917 179.112C219.917 178.28 219.709 177.624 219.293 177.144C218.888 176.653 218.338 176.408 217.645 176.408C216.973 176.408 216.424 176.653 215.997 177.144C215.57 177.635 215.357 178.291 215.357 179.112C215.357 179.933 215.57 180.6 215.997 181.112C216.424 181.613 216.973 181.864 217.645 181.864C218.328 181.864 218.877 181.613 219.293 181.112ZM224.373 183H222.869V171.416H224.373V183ZM228.016 181.176C228.485 181.656 229.056 181.896 229.728 181.896C230.4 181.896 230.965 181.656 231.424 181.176C231.893 180.685 232.128 180.008 232.128 179.144C232.128 178.291 231.893 177.624 231.424 177.144C230.965 176.653 230.4 176.408 229.728 176.408C229.056 176.408 228.485 176.653 228.016 177.144C227.557 177.624 227.328 178.291 227.328 179.144C227.328 180.008 227.557 180.685 228.016 181.176ZM226.896 176.232C227.642 175.453 228.586 175.064 229.728 175.064C230.869 175.064 231.808 175.453 232.544 176.232C233.29 177 233.664 177.971 233.664 179.144C233.664 180.328 233.296 181.309 232.56 182.088C231.824 182.856 230.88 183.24 229.728 183.24C228.576 183.24 227.632 182.856 226.896 182.088C226.16 181.309 225.792 180.328 225.792 179.144C225.792 177.971 226.16 177 226.896 176.232ZM238.32 176.456C237.669 176.456 237.114 176.691 236.656 177.16C236.208 177.629 235.984 178.291 235.984 179.144C235.984 179.987 236.208 180.648 236.656 181.128C237.114 181.608 237.674 181.848 238.336 181.848C238.976 181.848 239.461 181.688 239.792 181.368C240.133 181.048 240.362 180.68 240.48 180.264L241.808 180.84C241.594 181.48 241.189 182.04 240.592 182.52C240.005 183 239.253 183.24 238.336 183.24C237.216 183.24 236.288 182.851 235.552 182.072C234.816 181.293 234.448 180.317 234.448 179.144C234.448 177.949 234.816 176.973 235.552 176.216C236.288 175.448 237.21 175.064 238.32 175.064C239.258 175.064 240.016 175.304 240.592 175.784C241.178 176.264 241.562 176.84 241.744 177.512L240.384 178.088C240.266 177.64 240.042 177.256 239.712 176.936C239.381 176.616 238.917 176.456 238.32 176.456ZM249.968 175.304L246.688 178.552L250.032 183H248.144L245.632 179.608L244.56 180.68V183H243.072V171.416H244.56V178.712L247.888 175.304H249.968ZM250.258 181L251.618 180.52C251.671 180.936 251.853 181.283 252.162 181.56C252.471 181.827 252.887 181.96 253.41 181.96C253.815 181.96 254.135 181.864 254.37 181.672C254.605 181.469 254.722 181.224 254.722 180.936C254.722 180.424 254.391 180.093 253.73 179.944L252.418 179.656C251.821 179.528 251.351 179.272 251.01 178.888C250.669 178.504 250.498 178.04 250.498 177.496C250.498 176.835 250.765 176.264 251.298 175.784C251.842 175.304 252.487 175.064 253.234 175.064C253.725 175.064 254.162 175.139 254.546 175.288C254.93 175.427 255.229 175.613 255.442 175.848C255.655 176.083 255.815 176.301 255.922 176.504C256.029 176.707 256.109 176.915 256.162 177.128L254.834 177.624C254.813 177.496 254.775 177.373 254.722 177.256C254.669 177.128 254.583 176.989 254.466 176.84C254.359 176.691 254.199 176.573 253.986 176.488C253.773 176.392 253.522 176.344 253.234 176.344C252.861 176.344 252.551 176.445 252.306 176.648C252.071 176.851 251.954 177.091 251.954 177.368C251.954 177.859 252.247 178.168 252.834 178.296L254.082 178.568C254.765 178.717 255.287 178.995 255.65 179.4C256.023 179.795 256.21 180.28 256.21 180.856C256.21 181.464 255.959 182.013 255.458 182.504C254.967 182.995 254.279 183.24 253.394 183.24C252.445 183.24 251.703 183.005 251.17 182.536C250.637 182.056 250.333 181.544 250.258 181ZM257.552 181.976C257.552 181.688 257.664 181.437 257.888 181.224C258.112 181.011 258.389 180.904 258.72 180.904C259.083 180.904 259.387 181.037 259.632 181.304C259.888 181.571 260.016 181.944 260.016 182.424C260.016 183.384 259.771 184.125 259.28 184.648C258.789 185.171 258.245 185.469 257.648 185.544V184.712C258.032 184.627 258.347 184.413 258.592 184.072C258.837 183.741 258.965 183.379 258.976 182.984C258.901 183.037 258.784 183.064 258.624 183.064C258.315 183.064 258.059 182.968 257.856 182.776C257.653 182.573 257.552 182.307 257.552 181.976ZM85.2 214.216H83.552L85.472 210.152L82.16 203.304H83.888L86.288 208.616L88.592 203.304H90.208L85.2 214.216ZM92.4263 209.176C92.8956 209.656 93.4663 209.896 94.1383 209.896C94.8103 209.896 95.3756 209.656 95.8343 209.176C96.3036 208.685 96.5383 208.008 96.5383 207.144C96.5383 206.291 96.3036 205.624 95.8343 205.144C95.3756 204.653 94.8103 204.408 94.1383 204.408C93.4663 204.408 92.8956 204.653 92.4263 205.144C91.9676 205.624 91.7383 206.291 91.7383 207.144C91.7383 208.008 91.9676 208.685 92.4263 209.176ZM91.3063 204.232C92.053 203.453 92.997 203.064 94.1383 203.064C95.2796 203.064 96.2183 203.453 96.9543 204.232C97.701 205 98.0743 205.971 98.0743 207.144C98.0743 208.328 97.7063 209.309 96.9703 210.088C96.2343 210.856 95.2903 211.24 94.1383 211.24C92.9863 211.24 92.0423 210.856 91.3063 210.088C90.5703 209.309 90.2023 208.328 90.2023 207.144C90.2023 205.971 90.5703 205 91.3063 204.232ZM104.492 210.072C104.29 210.456 103.98 210.749 103.564 210.952C103.148 211.144 102.7 211.24 102.22 211.24C101.346 211.24 100.647 210.952 100.124 210.376C99.6015 209.789 99.3402 209.048 99.3402 208.152V203.304H100.844V207.928C100.844 208.504 100.983 208.979 101.26 209.352C101.548 209.725 101.991 209.912 102.588 209.912C103.186 209.912 103.639 209.736 103.948 209.384C104.258 209.021 104.412 208.541 104.412 207.944V203.304H105.916V209.576C105.916 210.077 105.943 210.552 105.996 211H104.556C104.514 210.765 104.492 210.456 104.492 210.072ZM114.714 204.456C114.064 204.456 113.509 204.691 113.05 205.16C112.602 205.629 112.378 206.291 112.378 207.144C112.378 207.987 112.602 208.648 113.05 209.128C113.509 209.608 114.069 209.848 114.73 209.848C115.37 209.848 115.856 209.688 116.186 209.368C116.528 209.048 116.757 208.68 116.874 208.264L118.202 208.84C117.989 209.48 117.584 210.04 116.986 210.52C116.4 211 115.648 211.24 114.73 211.24C113.61 211.24 112.682 210.851 111.946 210.072C111.21 209.293 110.842 208.317 110.842 207.144C110.842 205.949 111.21 204.973 111.946 204.216C112.682 203.448 113.605 203.064 114.714 203.064C115.653 203.064 116.41 203.304 116.986 203.784C117.573 204.264 117.957 204.84 118.138 205.512L116.778 206.088C116.661 205.64 116.437 205.256 116.106 204.936C115.776 204.616 115.312 204.456 114.714 204.456ZM118.908 208.936C118.908 208.275 119.122 207.747 119.548 207.352C119.975 206.947 120.54 206.696 121.244 206.6L123.324 206.296C123.719 206.243 123.916 206.051 123.916 205.72C123.916 205.315 123.778 204.984 123.5 204.728C123.223 204.472 122.807 204.344 122.252 204.344C121.74 204.344 121.335 204.488 121.036 204.776C120.738 205.053 120.562 205.427 120.508 205.896L119.068 205.56C119.143 204.824 119.479 204.227 120.076 203.768C120.674 203.299 121.388 203.064 122.22 203.064C123.308 203.064 124.114 203.331 124.636 203.864C125.159 204.387 125.42 205.059 125.42 205.88V209.736C125.42 210.195 125.452 210.616 125.516 211H124.044C123.991 210.68 123.964 210.333 123.964 209.96C123.751 210.301 123.436 210.6 123.02 210.856C122.615 211.112 122.103 211.24 121.484 211.24C120.727 211.24 120.108 211.016 119.628 210.568C119.148 210.109 118.908 209.565 118.908 208.936ZM121.692 209.976C122.364 209.976 122.903 209.795 123.308 209.432C123.714 209.069 123.916 208.493 123.916 207.704V207.352L121.564 207.704C121.223 207.757 120.951 207.88 120.748 208.072C120.546 208.264 120.444 208.525 120.444 208.856C120.444 209.155 120.556 209.416 120.78 209.64C121.015 209.864 121.319 209.976 121.692 209.976ZM128.767 206.552V211H127.263V203.304H128.735V204.408C129.247 203.523 130.036 203.08 131.103 203.08C131.988 203.08 132.666 203.363 133.135 203.928C133.615 204.493 133.855 205.224 133.855 206.12V211H132.351V206.376C132.351 205.085 131.754 204.44 130.559 204.44C129.994 204.44 129.551 204.643 129.231 205.048C128.922 205.443 128.767 205.944 128.767 206.552ZM140.223 206.36H144.431C144.41 205.784 144.218 205.315 143.855 204.952C143.492 204.579 142.98 204.392 142.319 204.392C141.722 204.392 141.231 204.589 140.847 204.984C140.463 205.368 140.255 205.827 140.223 206.36ZM144.655 208.36L145.951 208.808C145.727 209.523 145.311 210.109 144.703 210.568C144.095 211.016 143.359 211.24 142.495 211.24C141.418 211.24 140.5 210.872 139.743 210.136C138.996 209.389 138.623 208.387 138.623 207.128C138.623 205.955 138.986 204.984 139.711 204.216C140.436 203.448 141.3 203.064 142.303 203.064C143.466 203.064 144.372 203.432 145.023 204.168C145.674 204.893 145.999 205.869 145.999 207.096C145.999 207.288 145.988 207.448 145.967 207.576H140.175C140.186 208.259 140.41 208.819 140.847 209.256C141.295 209.693 141.844 209.912 142.495 209.912C143.594 209.912 144.314 209.395 144.655 208.36ZM146.939 208.936C146.939 208.275 147.152 207.747 147.579 207.352C148.005 206.947 148.571 206.696 149.275 206.6L151.355 206.296C151.749 206.243 151.947 206.051 151.947 205.72C151.947 205.315 151.808 204.984 151.531 204.728C151.253 204.472 150.837 204.344 150.283 204.344C149.771 204.344 149.365 204.488 149.067 204.776C148.768 205.053 148.592 205.427 148.539 205.896L147.099 205.56C147.173 204.824 147.509 204.227 148.107 203.768C148.704 203.299 149.419 203.064 150.251 203.064C151.339 203.064 152.144 203.331 152.667 203.864C153.189 204.387 153.451 205.059 153.451 205.88V209.736C153.451 210.195 153.483 210.616 153.547 211H152.075C152.021 210.68 151.995 210.333 151.995 209.96C151.781 210.301 151.467 210.6 151.051 210.856C150.645 211.112 150.133 211.24 149.515 211.24C148.757 211.24 148.139 211.016 147.659 210.568C147.179 210.109 146.939 209.565 146.939 208.936ZM149.723 209.976C150.395 209.976 150.933 209.795 151.339 209.432C151.744 209.069 151.947 208.493 151.947 207.704V207.352L149.595 207.704C149.253 207.757 148.981 207.88 148.779 208.072C148.576 208.264 148.475 208.525 148.475 208.856C148.475 209.155 148.587 209.416 148.811 209.64C149.045 209.864 149.349 209.976 149.723 209.976ZM154.574 209L155.934 208.52C155.987 208.936 156.168 209.283 156.478 209.56C156.787 209.827 157.203 209.96 157.726 209.96C158.131 209.96 158.451 209.864 158.686 209.672C158.92 209.469 159.038 209.224 159.038 208.936C159.038 208.424 158.707 208.093 158.046 207.944L156.734 207.656C156.136 207.528 155.667 207.272 155.326 206.888C154.984 206.504 154.814 206.04 154.814 205.496C154.814 204.835 155.08 204.264 155.614 203.784C156.158 203.304 156.803 203.064 157.55 203.064C158.04 203.064 158.478 203.139 158.862 203.288C159.246 203.427 159.544 203.613 159.758 203.848C159.971 204.083 160.131 204.301 160.238 204.504C160.344 204.707 160.424 204.915 160.478 205.128L159.15 205.624C159.128 205.496 159.091 205.373 159.038 205.256C158.984 205.128 158.899 204.989 158.782 204.84C158.675 204.691 158.515 204.573 158.302 204.488C158.088 204.392 157.838 204.344 157.55 204.344C157.176 204.344 156.867 204.445 156.622 204.648C156.387 204.851 156.27 205.091 156.27 205.368C156.27 205.859 156.563 206.168 157.15 206.296L158.398 206.568C159.08 206.717 159.603 206.995 159.966 207.4C160.339 207.795 160.526 208.28 160.526 208.856C160.526 209.464 160.275 210.013 159.774 210.504C159.283 210.995 158.595 211.24 157.71 211.24C156.76 211.24 156.019 211.005 155.486 210.536C154.952 210.056 154.648 209.544 154.574 209ZM163.516 211H162.028V203.304H163.516V211ZM161.996 201.16C161.793 200.947 161.692 200.691 161.692 200.392C161.692 200.093 161.793 199.837 161.996 199.624C162.209 199.411 162.465 199.304 162.764 199.304C163.062 199.304 163.318 199.411 163.532 199.624C163.745 199.827 163.852 200.083 163.852 200.392C163.852 200.691 163.745 200.947 163.532 201.16C163.318 201.363 163.062 201.464 162.764 201.464C162.465 201.464 162.209 201.363 161.996 201.16ZM167.078 211H165.574V199.416H167.078V211ZM171.057 214.216H169.409L171.329 210.152L168.017 203.304H169.745L172.145 208.616L174.449 203.304H176.065L171.057 214.216ZM181.999 211H180.511V199.416H181.999V204.392C182.202 204.019 182.522 203.709 182.959 203.464C183.407 203.208 183.935 203.08 184.543 203.08C185.663 203.08 186.533 203.459 187.151 204.216C187.77 204.973 188.079 205.939 188.079 207.112C188.079 208.296 187.759 209.277 187.119 210.056C186.479 210.824 185.605 211.208 184.495 211.208C183.343 211.208 182.511 210.765 181.999 209.88V211ZM185.919 209.112C186.335 208.611 186.543 207.944 186.543 207.112C186.543 206.28 186.335 205.624 185.919 205.144C185.514 204.653 184.965 204.408 184.271 204.408C183.599 204.408 183.05 204.653 182.623 205.144C182.197 205.635 181.983 206.291 181.983 207.112C181.983 207.933 182.197 208.6 182.623 209.112C183.05 209.613 183.599 209.864 184.271 209.864C184.954 209.864 185.503 209.613 185.919 209.112ZM194.489 210.072C194.287 210.456 193.977 210.749 193.561 210.952C193.145 211.144 192.697 211.24 192.217 211.24C191.343 211.24 190.644 210.952 190.121 210.376C189.599 209.789 189.337 209.048 189.337 208.152V203.304H190.841V207.928C190.841 208.504 190.98 208.979 191.257 209.352C191.545 209.725 191.988 209.912 192.585 209.912C193.183 209.912 193.636 209.736 193.945 209.384C194.255 209.021 194.409 208.541 194.409 207.944V203.304H195.913V209.576C195.913 210.077 195.94 210.552 195.993 211H194.553C194.511 210.765 194.489 210.456 194.489 210.072ZM199.468 211H197.98V203.304H199.468V211ZM197.948 201.16C197.745 200.947 197.644 200.691 197.644 200.392C197.644 200.093 197.745 199.837 197.948 199.624C198.161 199.411 198.417 199.304 198.716 199.304C199.014 199.304 199.27 199.411 199.484 199.624C199.697 199.827 199.804 200.083 199.804 200.392C199.804 200.691 199.697 200.947 199.484 201.16C199.27 201.363 199.014 201.464 198.716 201.464C198.417 201.464 198.161 201.363 197.948 201.16ZM203.03 211H201.526V199.416H203.03V211ZM205.985 207.128C205.985 207.939 206.182 208.6 206.577 209.112C206.982 209.624 207.537 209.88 208.241 209.88C208.913 209.88 209.451 209.619 209.857 209.096C210.262 208.573 210.465 207.907 210.465 207.096C210.465 206.296 210.267 205.651 209.873 205.16C209.478 204.669 208.939 204.424 208.257 204.424C207.574 204.424 207.025 204.675 206.609 205.176C206.193 205.677 205.985 206.328 205.985 207.128ZM210.481 209.96V209.832C210.278 210.227 209.969 210.557 209.553 210.824C209.147 211.08 208.662 211.208 208.097 211.208C206.998 211.208 206.113 210.824 205.441 210.056C204.779 209.277 204.449 208.301 204.449 207.128C204.449 206.008 204.79 205.059 205.473 204.28C206.155 203.491 207.03 203.096 208.097 203.096C208.726 203.096 209.238 203.224 209.633 203.48C210.027 203.725 210.299 204.029 210.449 204.392V199.416H211.937V209.576C211.937 210.099 211.963 210.573 212.017 211H210.561C210.507 210.701 210.481 210.355 210.481 209.96ZM217.014 208.936C217.014 208.275 217.228 207.747 217.654 207.352C218.081 206.947 218.646 206.696 219.35 206.6L221.43 206.296C221.825 206.243 222.022 206.051 222.022 205.72C222.022 205.315 221.884 204.984 221.606 204.728C221.329 204.472 220.913 204.344 220.358 204.344C219.846 204.344 219.441 204.488 219.142 204.776C218.844 205.053 218.668 205.427 218.614 205.896L217.174 205.56C217.249 204.824 217.585 204.227 218.182 203.768C218.78 203.299 219.494 203.064 220.326 203.064C221.414 203.064 222.22 203.331 222.742 203.864C223.265 204.387 223.526 205.059 223.526 205.88V209.736C223.526 210.195 223.558 210.616 223.622 211H222.15C222.097 210.68 222.07 210.333 222.07 209.96C221.857 210.301 221.542 210.6 221.126 210.856C220.721 211.112 220.209 211.24 219.59 211.24C218.833 211.24 218.214 211.016 217.734 210.568C217.254 210.109 217.014 209.565 217.014 208.936ZM219.798 209.976C220.47 209.976 221.009 209.795 221.414 209.432C221.82 209.069 222.022 208.493 222.022 207.704V207.352L219.67 207.704C219.329 207.757 219.057 207.88 218.854 208.072C218.652 208.264 218.55 208.525 218.55 208.856C218.55 209.155 218.662 209.416 218.886 209.64C219.121 209.864 219.425 209.976 219.798 209.976ZM230.357 214.04H228.869V203.304H230.325V204.504C230.549 204.099 230.885 203.768 231.333 203.512C231.781 203.256 232.304 203.128 232.901 203.128C234.01 203.128 234.874 203.507 235.493 204.264C236.122 205.021 236.437 205.981 236.437 207.144C236.437 208.317 236.112 209.288 235.461 210.056C234.821 210.824 233.952 211.208 232.853 211.208C232.288 211.208 231.786 211.091 231.349 210.856C230.912 210.621 230.581 210.323 230.357 209.96V214.04ZM234.901 207.144C234.901 206.365 234.693 205.725 234.277 205.224C233.872 204.712 233.322 204.456 232.629 204.456C231.946 204.456 231.392 204.712 230.965 205.224C230.549 205.725 230.341 206.365 230.341 207.144C230.341 207.944 230.549 208.6 230.965 209.112C231.392 209.613 231.946 209.864 232.629 209.864C233.312 209.864 233.861 209.613 234.277 209.112C234.693 208.6 234.901 207.944 234.901 207.144ZM237.373 208.936C237.373 208.275 237.586 207.747 238.013 207.352C238.44 206.947 239.005 206.696 239.709 206.6L241.789 206.296C242.184 206.243 242.381 206.051 242.381 205.72C242.381 205.315 242.242 204.984 241.965 204.728C241.688 204.472 241.272 204.344 240.717 204.344C240.205 204.344 239.8 204.488 239.501 204.776C239.202 205.053 239.026 205.427 238.973 205.896L237.533 205.56C237.608 204.824 237.944 204.227 238.541 203.768C239.138 203.299 239.853 203.064 240.685 203.064C241.773 203.064 242.578 203.331 243.101 203.864C243.624 204.387 243.885 205.059 243.885 205.88V209.736C243.885 210.195 243.917 210.616 243.981 211H242.509C242.456 210.68 242.429 210.333 242.429 209.96C242.216 210.301 241.901 210.6 241.485 210.856C241.08 211.112 240.568 211.24 239.949 211.24C239.192 211.24 238.573 211.016 238.093 210.568C237.613 210.109 237.373 209.565 237.373 208.936ZM240.157 209.976C240.829 209.976 241.368 209.795 241.773 209.432C242.178 209.069 242.381 208.493 242.381 207.704V207.352L240.029 207.704C239.688 207.757 239.416 207.88 239.213 208.072C239.01 208.264 238.909 208.525 238.909 208.856C238.909 209.155 239.021 209.416 239.245 209.64C239.48 209.864 239.784 209.976 240.157 209.976ZM245.168 211.416L246.624 211.08C246.677 211.624 246.896 212.072 247.28 212.424C247.664 212.787 248.144 212.968 248.72 212.968C250.288 212.968 251.072 212.136 251.072 210.472V209.368C250.88 209.741 250.576 210.045 250.16 210.28C249.755 210.515 249.275 210.632 248.72 210.632C247.696 210.632 246.848 210.285 246.176 209.592C245.515 208.888 245.184 207.992 245.184 206.904C245.184 205.848 245.515 204.963 246.176 204.248C246.837 203.523 247.685 203.16 248.72 203.16C249.893 203.16 250.683 203.565 251.088 204.376V203.304H252.576V210.424C252.576 210.936 252.507 211.411 252.368 211.848C252.24 212.296 252.032 212.707 251.744 213.08C251.456 213.453 251.051 213.747 250.528 213.96C250.016 214.173 249.413 214.28 248.72 214.28C247.771 214.28 246.965 214.008 246.304 213.464C245.643 212.931 245.264 212.248 245.168 211.416ZM248.944 209.368C249.595 209.368 250.123 209.144 250.528 208.696C250.933 208.237 251.136 207.64 251.136 206.904C251.136 206.168 250.933 205.576 250.528 205.128C250.123 204.669 249.595 204.44 248.944 204.44C248.283 204.44 247.744 204.664 247.328 205.112C246.923 205.56 246.72 206.157 246.72 206.904C246.72 207.661 246.917 208.264 247.312 208.712C247.717 209.149 248.261 209.368 248.944 209.368ZM255.454 206.36H259.662C259.64 205.784 259.448 205.315 259.086 204.952C258.723 204.579 258.211 204.392 257.55 204.392C256.952 204.392 256.462 204.589 256.078 204.984C255.694 205.368 255.486 205.827 255.454 206.36ZM259.886 208.36L261.182 208.808C260.958 209.523 260.542 210.109 259.934 210.568C259.326 211.016 258.59 211.24 257.726 211.24C256.648 211.24 255.731 210.872 254.974 210.136C254.227 209.389 253.854 208.387 253.854 207.128C253.854 205.955 254.216 204.984 254.942 204.216C255.667 203.448 256.531 203.064 257.534 203.064C258.696 203.064 259.603 203.432 260.254 204.168C260.904 204.893 261.23 205.869 261.23 207.096C261.23 207.288 261.219 207.448 261.198 207.576H255.406C255.416 208.259 255.64 208.819 256.078 209.256C256.526 209.693 257.075 209.912 257.726 209.912C258.824 209.912 259.544 209.395 259.886 208.36ZM87.616 231.304H89.168L91.168 237.096L92.864 231.304H94.448L91.952 239H90.4L88.352 233.144L86.352 239H84.768L82.24 231.304H83.888L85.616 237.096L87.616 231.304ZM96.9553 239H95.4673V231.304H96.9553V239ZM95.4353 229.16C95.2326 228.947 95.1313 228.691 95.1313 228.392C95.1313 228.093 95.2326 227.837 95.4353 227.624C95.6486 227.411 95.9046 227.304 96.2033 227.304C96.502 227.304 96.758 227.411 96.9713 227.624C97.1846 227.827 97.2913 228.083 97.2913 228.392C97.2913 228.691 97.1846 228.947 96.9713 229.16C96.758 229.363 96.502 229.464 96.2033 229.464C95.9046 229.464 95.6486 229.363 95.4353 229.16ZM101.03 228.872V231.304H102.694V232.664H101.03V236.664C101.03 237.027 101.11 237.293 101.27 237.464C101.441 237.635 101.718 237.72 102.102 237.72C102.326 237.72 102.523 237.699 102.694 237.656V238.936C102.438 239.032 102.097 239.08 101.67 239.08C101.009 239.08 100.486 238.888 100.102 238.504C99.718 238.12 99.526 237.581 99.526 236.888V232.664H98.054V231.304H98.47C98.8646 231.304 99.158 231.197 99.35 230.984C99.5526 230.76 99.654 230.472 99.654 230.12V228.872H101.03ZM105.705 234.472V239H104.201V227.416H105.705V232.2C106.217 231.453 106.996 231.08 108.041 231.08C108.927 231.08 109.604 231.363 110.073 231.928C110.553 232.493 110.793 233.224 110.793 234.12V239H109.289V234.376C109.289 233.085 108.692 232.44 107.497 232.44C106.943 232.44 106.511 232.632 106.201 233.016C105.892 233.389 105.727 233.875 105.705 234.472ZM114.269 237.176C114.739 237.656 115.309 237.896 115.981 237.896C116.653 237.896 117.219 237.656 117.677 237.176C118.147 236.685 118.381 236.008 118.381 235.144C118.381 234.291 118.147 233.624 117.677 233.144C117.219 232.653 116.653 232.408 115.981 232.408C115.309 232.408 114.739 232.653 114.269 233.144C113.811 233.624 113.581 234.291 113.581 235.144C113.581 236.008 113.811 236.685 114.269 237.176ZM113.149 232.232C113.896 231.453 114.84 231.064 115.981 231.064C117.123 231.064 118.061 231.453 118.797 232.232C119.544 233 119.917 233.971 119.917 235.144C119.917 236.328 119.549 237.309 118.813 238.088C118.077 238.856 117.133 239.24 115.981 239.24C114.829 239.24 113.885 238.856 113.149 238.088C112.413 237.309 112.045 236.328 112.045 235.144C112.045 233.971 112.413 233 113.149 232.232ZM126.335 238.072C126.133 238.456 125.823 238.749 125.407 238.952C124.991 239.144 124.543 239.24 124.063 239.24C123.189 239.24 122.49 238.952 121.967 238.376C121.445 237.789 121.183 237.048 121.183 236.152V231.304H122.687V235.928C122.687 236.504 122.826 236.979 123.103 237.352C123.391 237.725 123.834 237.912 124.431 237.912C125.029 237.912 125.482 237.736 125.791 237.384C126.101 237.021 126.255 236.541 126.255 235.944V231.304H127.759V237.576C127.759 238.077 127.786 238.552 127.839 239H126.399C126.357 238.765 126.335 238.456 126.335 238.072ZM131.842 228.872V231.304H133.506V232.664H131.842V236.664C131.842 237.027 131.922 237.293 132.082 237.464C132.252 237.635 132.53 237.72 132.914 237.72C133.138 237.72 133.335 237.699 133.506 237.656V238.936C133.25 239.032 132.908 239.08 132.482 239.08C131.82 239.08 131.298 238.888 130.914 238.504C130.53 238.12 130.338 237.581 130.338 236.888V232.664H128.866V231.304H129.282C129.676 231.304 129.97 231.197 130.162 230.984C130.364 230.76 130.466 230.472 130.466 230.12V228.872H131.842ZM141.745 232.456C141.094 232.456 140.539 232.691 140.081 233.16C139.633 233.629 139.409 234.291 139.409 235.144C139.409 235.987 139.633 236.648 140.081 237.128C140.539 237.608 141.099 237.848 141.761 237.848C142.401 237.848 142.886 237.688 143.217 237.368C143.558 237.048 143.787 236.68 143.905 236.264L145.233 236.84C145.019 237.48 144.614 238.04 144.017 238.52C143.43 239 142.678 239.24 141.761 239.24C140.641 239.24 139.713 238.851 138.977 238.072C138.241 237.293 137.873 236.317 137.873 235.144C137.873 233.949 138.241 232.973 138.977 232.216C139.713 231.448 140.635 231.064 141.745 231.064C142.683 231.064 143.441 231.304 144.017 231.784C144.603 232.264 144.987 232.84 145.169 233.512L143.809 234.088C143.691 233.64 143.467 233.256 143.137 232.936C142.806 232.616 142.342 232.456 141.745 232.456ZM148.003 237.176C148.472 237.656 149.043 237.896 149.715 237.896C150.387 237.896 150.952 237.656 151.411 237.176C151.88 236.685 152.115 236.008 152.115 235.144C152.115 234.291 151.88 233.624 151.411 233.144C150.952 232.653 150.387 232.408 149.715 232.408C149.043 232.408 148.472 232.653 148.003 233.144C147.544 233.624 147.315 234.291 147.315 235.144C147.315 236.008 147.544 236.685 148.003 237.176ZM146.883 232.232C147.629 231.453 148.573 231.064 149.715 231.064C150.856 231.064 151.795 231.453 152.531 232.232C153.277 233 153.651 233.971 153.651 235.144C153.651 236.328 153.283 237.309 152.547 238.088C151.811 238.856 150.867 239.24 149.715 239.24C148.563 239.24 147.619 238.856 146.883 238.088C146.147 237.309 145.779 236.328 145.779 235.144C145.779 233.971 146.147 233 146.883 232.232ZM155.971 235.128C155.971 235.939 156.168 236.6 156.563 237.112C156.968 237.624 157.523 237.88 158.227 237.88C158.899 237.88 159.437 237.619 159.843 237.096C160.248 236.573 160.451 235.907 160.451 235.096C160.451 234.296 160.253 233.651 159.859 233.16C159.464 232.669 158.925 232.424 158.243 232.424C157.56 232.424 157.011 232.675 156.595 233.176C156.179 233.677 155.971 234.328 155.971 235.128ZM160.467 237.96V237.832C160.264 238.227 159.955 238.557 159.539 238.824C159.133 239.08 158.648 239.208 158.083 239.208C156.984 239.208 156.099 238.824 155.427 238.056C154.765 237.277 154.435 236.301 154.435 235.128C154.435 234.008 154.776 233.059 155.459 232.28C156.141 231.491 157.016 231.096 158.083 231.096C158.712 231.096 159.224 231.224 159.619 231.48C160.013 231.725 160.285 232.029 160.435 232.392V227.416H161.923V237.576C161.923 238.099 161.949 238.573 162.003 239H160.547C160.493 238.701 160.467 238.355 160.467 237.96ZM165.469 239H163.981V231.304H165.469V239ZM163.949 229.16C163.746 228.947 163.645 228.691 163.645 228.392C163.645 228.093 163.746 227.837 163.949 227.624C164.162 227.411 164.418 227.304 164.717 227.304C165.015 227.304 165.271 227.411 165.485 227.624C165.698 227.827 165.805 228.083 165.805 228.392C165.805 228.691 165.698 228.947 165.485 229.16C165.271 229.363 165.015 229.464 164.717 229.464C164.418 229.464 164.162 229.363 163.949 229.16ZM169.031 234.552V239H167.527V231.304H168.999V232.408C169.511 231.523 170.301 231.08 171.367 231.08C172.253 231.08 172.93 231.363 173.399 231.928C173.879 232.493 174.119 233.224 174.119 234.12V239H172.615V234.376C172.615 233.085 172.018 232.44 170.823 232.44C170.258 232.44 169.815 232.643 169.495 233.048C169.186 233.443 169.031 233.944 169.031 234.552ZM175.452 239.416L176.908 239.08C176.961 239.624 177.18 240.072 177.564 240.424C177.948 240.787 178.428 240.968 179.004 240.968C180.572 240.968 181.356 240.136 181.356 238.472V237.368C181.164 237.741 180.86 238.045 180.444 238.28C180.038 238.515 179.558 238.632 179.004 238.632C177.98 238.632 177.132 238.285 176.46 237.592C175.798 236.888 175.468 235.992 175.468 234.904C175.468 233.848 175.798 232.963 176.46 232.248C177.121 231.523 177.969 231.16 179.004 231.16C180.177 231.16 180.966 231.565 181.372 232.376V231.304H182.86V238.424C182.86 238.936 182.79 239.411 182.652 239.848C182.524 240.296 182.316 240.707 182.028 241.08C181.74 241.453 181.334 241.747 180.812 241.96C180.3 242.173 179.697 242.28 179.004 242.28C178.054 242.28 177.249 242.008 176.588 241.464C175.926 240.931 175.548 240.248 175.452 239.416ZM179.228 237.368C179.878 237.368 180.406 237.144 180.812 236.696C181.217 236.237 181.42 235.64 181.42 234.904C181.42 234.168 181.217 233.576 180.812 233.128C180.406 232.669 179.878 232.44 179.228 232.44C178.566 232.44 178.028 232.664 177.612 233.112C177.206 233.56 177.004 234.157 177.004 234.904C177.004 235.661 177.201 236.264 177.596 236.712C178.001 237.149 178.545 237.368 179.228 237.368ZM184.921 238.76C184.708 238.547 184.601 238.285 184.601 237.976C184.601 237.667 184.708 237.405 184.921 237.192C185.135 236.968 185.396 236.856 185.705 236.856C186.015 236.856 186.276 236.968 186.489 237.192C186.713 237.405 186.825 237.667 186.825 237.976C186.825 238.285 186.713 238.547 186.489 238.76C186.276 238.973 186.015 239.08 185.705 239.08C185.396 239.08 185.135 238.973 184.921 238.76Z" fill="#696871"/>
<path fill-rule="evenodd" clip-rule="evenodd" d="M116.5 97C135.554 97 151 81.5538 151 62.5C151 43.4462 135.554 28 116.5 28C97.4462 28 82 43.4462 82 62.5C82 81.5538 97.4462 97 116.5 97Z" fill="#FEDC5A" fill-opacity="0.1"/>
<path d="M118 77H102.16C100.967 77 100 76.0103 100 74.7895V51.2105C100 49.9897 100.967 49 102.16 49H118V50.4737H102.16C101.762 50.4737 101.44 50.8036 101.44 51.2105V74.7895C101.44 75.1964 101.762 75.5263 102.16 75.5263H118V77Z" fill="#FEDC5A"/>
<path fill-rule="evenodd" clip-rule="evenodd" d="M120 49H131.789C133.01 49 134 49.9897 134 51.2105V74.7895C134 76.0103 133.01 77 131.789 77H120V49ZM124.421 69.6316H129.579C129.986 69.6316 130.316 69.3017 130.316 68.8947C130.316 68.4878 129.986 68.1579 129.579 68.1579H124.421C124.014 68.1579 123.684 68.4878 123.684 68.8947C123.684 69.3017 124.014 69.6316 124.421 69.6316ZM129.579 63.7368H124.421C124.014 63.7368 123.684 63.4069 123.684 63C123.684 62.5931 124.014 62.2632 124.421 62.2632H129.579C129.986 62.2632 130.316 62.5931 130.316 63C130.316 63.4069 129.986 63.7368 129.579 63.7368ZM124.421 57.8421H129.579C129.986 57.8421 130.316 57.5122 130.316 57.1053C130.316 56.6983 129.986 56.3684 129.579 56.3684H124.421C124.014 56.3684 123.684 56.6983 123.684 57.1053C123.684 57.5122 124.014 57.8421 124.421 57.8421Z" fill="#FEDC5A"/>
<defs>
<filter id="filter0_d" x="0" y="0" width="363" height="382" filterUnits="userSpaceOnUse" color-interpolation-filters="sRGB">
<feFlood flood-opacity="0" result="BackgroundImageFix"/>
<feColorMatrix in="SourceAlpha" type="matrix" values="0 0 0 0 0 0 0 0 0 0 0 0 0 0 0 0 0 0 127 0"/>
<feOffset dy="52"/>
<feGaussianBlur stdDeviation="27"/>
<feColorMatrix type="matrix" values="0 0 0 0 0.254026 0 0 0 0 0.241871 0 0 0 0 0.395211 0 0 0 0.296766 0"/>
<feBlend mode="normal" in2="BackgroundImageFix" result="effect1_dropShadow"/>
<feBlend mode="normal" in="SourceGraphic" in2="effect1_dropShadow" result="shape"/>
</filter>
</defs>
</svg>
